<svg xmlns="http://www.w3.org/2000/svg" width="104.007" height="89" viewBox="0 0 104.007 89">
  <path id="パス_12" data-name="パス 12" d="M462.093,650.026c-2.929-6.832-5.822-13.3-7.727-20.6-1.036-3.973-1.952-7.983-3.07-11.93-.782-2.754-1.47-6.335-3.532-8.305-1.779-1.7-3.986-1.313-6.085-.718-3.67,1.036-7.339,1.948-11.074,2.658-7.791,1.483-15.66,2.493-23.314,4.746-7.849,2.31-15.656,4.868-23.321,7.842-4.542,1.761-9.35,2.606-13.837,4.5s-8.438,5.449-6.946,11.34a30.7,30.7,0,0,0,2.353,5.608,44.658,44.658,0,0,1,2.221,6.122c1.421,4.624,2.64,9.324,3.955,13.985,2.626,9.307,5.228,18.664,6.422,28.352a2.589,2.589,0,0,0,1.244,1.861,2.334,2.334,0,0,0,3.145,1.263c6.433-2.608,13.106-4.308,19.717-6.253,6.856-2.014,13.588-4.485,20.458-6.453,13.948-4,28.088-7.117,41.953-11.469a3.335,3.335,0,0,0,2.164-3.148C467.29,662.639,464.664,656.026,462.093,650.026ZM382.546,631.2c13.505-4.9,26.81-9.773,40.9-12.226a166.869,166.869,0,0,0,20.076-4.278,4.9,4.9,0,0,1,.605-.15c.045.092.071.2.112.3-5.578,6.8-10.1,14.551-15.9,21.161-2.905,3.309-5.9,6.536-8.537,10.119a56.18,56.18,0,0,0-3.774,5.8c-.8,1.411-.985,2.112-2.559,1.907-3.229-.42-6.364-2.4-9.34-3.736-4.033-1.809-8.23-3.233-12.32-4.888-4.163-1.685-8.285-3.527-12.483-5.1-2.842-1.062-6.685-1.981-8.352-5.031-.032-.057-.071-.1-.106-.154l.33-.166C374.788,632.955,378.824,632.551,382.546,631.2Zm38.586,46.556c-6.87,1.968-13.6,4.439-20.458,6.455-5.761,1.694-11.558,3.235-17.212,5.321a172.656,172.656,0,0,0-4.578-20.675c-2.034-7.4-3.9-14.952-6.374-22.186q-.513-1.5-1.1-2.967c2.946,1.663,6.327,2.652,9.332,3.9,7.477,3.1,15.2,5.721,22.565,9.135,4.578,2.123,11.614,6.309,15.931,1.43a24.779,24.779,0,0,0,2.479-4.014,45.992,45.992,0,0,1,3.6-5.168c2.378-3.017,4.967-5.817,7.483-8.691,4.971-5.678,8.981-12.216,13.562-18.239.586,2.236,1.146,4.48,1.712,6.72a126.99,126.99,0,0,0,7.43,21.144c2.347,5.249,5.114,11.016,5.435,17C447.758,670.929,434.361,673.964,421.132,677.752Z" transform="translate(-362.865 -607.969)" fill="#fff"/>
</svg>
