<svg xmlns="http://www.w3.org/2000/svg" width="282.721" height="231.812" viewBox="0 0 282.721 231.812">
  <path id="パス_14" data-name="パス 14" d="M743.661,355.128a17.083,17.083,0,0,0,11.912-8.547c2.293-3.825.844-6.88,2.444-10.312.716-1.531.392-11.7-16.03-8.525-8.865,1.713-12.606,13.488-12.274,18.407C729.886,348.693,735.152,356.976,743.661,355.128Zm77.813-4.6c6.42-5.718,6.661-10.576,6.111-14.1A12.044,12.044,0,0,0,815.6,327.1c-5.56,0-7.755,1.569-9.634,2.98-2.331,1.743-1.176,4.542-3.922,7.2S800.4,347.471,804,350.526,815.047,356.244,821.474,350.526Zm125.934,11.489c-7.393-10.176-20.639-17.124-32.958-17.275-.136-.008-.271-.008-.415-.008-17.049,0-41,13.345-41.822,35.456-.49,13.118,11.081,29.066,27.52,37.907,9.135,4.911,18.466,6.963,27.308,6.276-8.645,27.451-43.233,72.05-114.642,72.05-.566,0-1.146-.008-1.72-.015-30.446-.3-53.621-9.452-68.889-27.188-19.222-22.329-20.927-52.64-18.912-67.033a10.687,10.687,0,1,0-21.167-2.972c-3.131,22.3,1.245,57.664,23.876,83.961,19.455,22.6,48.016,34.248,84.888,34.618.619.007,1.238.007,1.856.007,83.132,0,130.166-55.763,137.424-96.174a8.232,8.232,0,0,0,.792-1.758C956.513,397.063,955.194,372.735,947.408,362.015ZM936.425,398.15c-6.873-4.6-13.556-13.692-14.544-16.513a8.865,8.865,0,0,0-11.172-5.492,8.765,8.765,0,0,0-5.522,11.074c1.5,4.5,6.692,12.447,13.647,19.2a37.7,37.7,0,0,1-10.765-3.832c-11.014-5.922-18.467-16.219-18.256-21.749.422-11.391,16.045-18.5,24.237-18.5h.182c7.724.1,15.366,5.115,18.934,10.018C935.225,375.209,937.435,384.873,936.425,398.15Z" transform="matrix(0.985, -0.174, 0.174, 0.985, -746.966, -156.426)" fill="#f8b62b" opacity="0.2"/>
</svg>
