<svg xmlns="http://www.w3.org/2000/svg" width="479.998" height="80" viewBox="0 0 479.998 80">
  <g id="グループ_29" data-name="グループ 29" transform="translate(760.96 -198.879)">
    <path id="パス_37" data-name="パス 37" d="M-423.359,243.37a4.511,4.511,0,0,0-5.581,3.1l-7.646,26.824-3.518-3.457,3.118-3.064a4.514,4.514,0,0,0,.057-6.385,4.513,4.513,0,0,0-6.386-.057l-3.233,3.176-3.233-3.176a4.516,4.516,0,0,0-6.386.057,4.513,4.513,0,0,0,.057,6.385l3.118,3.064-3.519,3.457-7.646-26.824a4.512,4.512,0,0,0-5.581-3.1,4.513,4.513,0,0,0-3.1,5.58l9.73,34.134a4.517,4.517,0,0,0,3.189,3.127,4.517,4.517,0,0,0,1.154.15,4.513,4.513,0,0,0,3.165-1.3l9.055-8.9,9.055,8.9a4.513,4.513,0,0,0,3.165,1.3,4.517,4.517,0,0,0,1.154-.15,4.517,4.517,0,0,0,3.189-3.127l9.73-34.134A4.513,4.513,0,0,0-423.359,243.37Zm22.662,4.959a19.037,19.037,0,0,0-19.016,19.016A19.037,19.037,0,0,0-400.7,286.361a19.643,19.643,0,0,0,13.633-4.973,4.516,4.516,0,0,0,.182-6.383,4.519,4.519,0,0,0-6.383-.182,10.726,10.726,0,0,1-7.431,2.506,10,10,0,0,1-9.985-9.985,10,10,0,0,1,9.985-9.985,9.993,9.993,0,0,1,8.9,5.47h-8.9a4.514,4.514,0,0,0-4.515,4.515,4.515,4.515,0,0,0,4.515,4.515h14.5a4.515,4.515,0,0,0,4.515-4.515A19.037,19.037,0,0,0-400.7,248.329Zm40.069.418h-7.437v-7.519a4.585,4.585,0,0,0-4.586-4.586,4.586,4.586,0,0,0-4.586,4.586v40.617a4.587,4.587,0,0,0,4.586,4.586h12.022c11.02,0,19.654-8.276,19.654-18.842S-349.609,248.748-360.629,248.748Zm0,28.512h-7.437V257.92h7.437c6.808,0,10.482,4.982,10.482,9.67S-353.821,277.26-360.629,277.26Z" transform="translate(-57.59 -7.553)" fill="#fff"/>
    <rect id="長方形_19" data-name="長方形 19" width="158.457" height="21.389" rx="10.695" transform="translate(-738.632 198.879)" fill="#f8b62a"/>
    <path id="パス_38" data-name="パス 38" d="M-699.9,204.272h-8.748c-.672,0-1.069.581-1.069,1.342s.412,1.36,1.069,1.36h7.755c.412,0,.58.122.58.458a.989.989,0,0,1-.014.2c-.442,2.916-2.917,5.42-6.474,6.4a1.25,1.25,0,0,0-.993,1.268,2,2,0,0,0,.092.578,1.274,1.274,0,0,0,1.314.918,2.387,2.387,0,0,0,.549-.076,11.426,11.426,0,0,0,8.535-9.437,4.932,4.932,0,0,0,.046-.656,2.362,2.362,0,0,0-.475-1.587A2.445,2.445,0,0,0-699.9,204.272Zm17.438,4.611h-10.81c-.763,0-1.16.58-1.16,1.419s.4,1.42,1.16,1.42h10.81c.762,0,1.161-.58,1.161-1.42S-681.694,208.883-682.457,208.883Zm14.294-6a.917.917,0,0,0-.7-.335,1,1,0,0,0-.5.136.843.843,0,0,0-.443.7.719.719,0,0,0,.152.443c.275.381.6.9.855,1.328a.773.773,0,0,0,.7.457,1.088,1.088,0,0,0,.534-.167.8.8,0,0,0,.413-.732,1.042,1.042,0,0,0-.108-.459A6.76,6.76,0,0,0-668.162,202.882Zm-2.672,3.4a.842.842,0,0,0,.763.474.954.954,0,0,0,.549-.183.827.827,0,0,0,.413-.734,1.21,1.21,0,0,0-.154-.565,14.7,14.7,0,0,0-.991-1.39.908.908,0,0,0-.688-.335.97.97,0,0,0-.518.152.9.9,0,0,0-.443.75.8.8,0,0,0,.138.442C-671.446,205.341-671.064,205.921-670.834,206.286Zm2.823,3.757a47.366,47.366,0,0,0-7.069-2.4v-3.3c0-.732-.594-1.13-1.45-1.13s-1.4.4-1.4,1.13v11.6c0,.732.549,1.129,1.4,1.129s1.436-.4,1.436-1.129v-5.328a40.419,40.419,0,0,1,5.985,2.151,1.4,1.4,0,0,0,.594.138,1.358,1.358,0,0,0,1.252-1.007,1.978,1.978,0,0,0,.108-.642A1.3,1.3,0,0,0-668.011,210.043Zm16.552-6.994a.86.86,0,0,0-.777-.518,1.058,1.058,0,0,0-.29.046.694.694,0,0,0-.566.657.982.982,0,0,0,.078.337c.136.319.351.823.473,1.19a.7.7,0,0,0,.686.489.949.949,0,0,0,.351-.062.724.724,0,0,0,.52-.732,1.638,1.638,0,0,0-.032-.262A5.112,5.112,0,0,0-651.459,203.049Zm-9.6,1.161h-.123a1.223,1.223,0,0,0-1.374,1.222,20.53,20.53,0,0,1-.839,5.466,10.4,10.4,0,0,1-1.725,3.282,1.526,1.526,0,0,0-.351.977,1.43,1.43,0,0,0,.426,1.023,1.556,1.556,0,0,0,1.039.4,1.629,1.629,0,0,0,1.3-.658,13.971,13.971,0,0,0,1.968-4.061,24.674,24.674,0,0,0,.931-6.306A1.181,1.181,0,0,0-661.062,204.21Zm7.526,6.7a20.071,20.071,0,0,1-.824-5.282.922.922,0,0,0,.443.122,1.112,1.112,0,0,0,.381-.076.73.73,0,0,0,.534-.7.928.928,0,0,0-.06-.337,7.941,7.941,0,0,0-.6-1.342.726.726,0,0,0-.656-.4,1.271,1.271,0,0,0-.4.076.739.739,0,0,0-.566.686.886.886,0,0,0,.078.337,2.694,2.694,0,0,1,.167.351,1.69,1.69,0,0,0-.7-.138h-.124a1.188,1.188,0,0,0-1.25,1.344,24.61,24.61,0,0,0,.931,6.443,12.16,12.16,0,0,0,2,3.985,1.5,1.5,0,0,0,1.191.58,1.538,1.538,0,0,0,1.007-.367,1.442,1.442,0,0,0,.534-1.114,1.523,1.523,0,0,0-.351-.962A10.424,10.424,0,0,1-653.535,210.913Zm8.383-2.014a1.292,1.292,0,0,0,.931.427,1.486,1.486,0,0,0,1.1-.518,1.545,1.545,0,0,0,.411-1.023,1.433,1.433,0,0,0-.381-.963,14.828,14.828,0,0,0-2.885-2.427,1.359,1.359,0,0,0-.7-.2,1.469,1.469,0,0,0-1.115.521,1.531,1.531,0,0,0-.383.977,1.1,1.1,0,0,0,.443.9A19.726,19.726,0,0,1-645.152,208.9Zm8.673-3.1a2.066,2.066,0,0,0-.594-.106c-.489,0-.917.29-1.161,1.1a10.54,10.54,0,0,1-3.085,4.81,10.964,10.964,0,0,1-5.8,2.06,1.314,1.314,0,0,0-1.237,1.42v.138a1.243,1.243,0,0,0,1.4,1.237,12.783,12.783,0,0,0,7.191-2.4,12.257,12.257,0,0,0,4.154-6.533,1.883,1.883,0,0,0,.06-.489A1.221,1.221,0,0,0-636.479,205.8Zm13.636-.716-3.634.044c.046-.135.092-.259.122-.381a1.219,1.219,0,0,0,.046-.335c0-.489-.351-.9-1.053-1.069a2.1,2.1,0,0,0-.518-.062,1.161,1.161,0,0,0-1.145.9,11.336,11.336,0,0,1-1.543,2.7,8.5,8.5,0,0,1-1.938,1.787,1.3,1.3,0,0,0-.58,1.114,1.312,1.312,0,0,0,.243.778,1.361,1.361,0,0,0,1.13.61,1.567,1.567,0,0,0,.916-.3,10.058,10.058,0,0,0,3.146-3.313l3.558-.03c.365,0,.489.122.489.365a1.145,1.145,0,0,1-.032.214c-.64,3.1-2.886,5.406-6.7,6.306a1.222,1.222,0,0,0-1.039,1.238,1.744,1.744,0,0,0,.092.534,1.171,1.171,0,0,0,1.192.87,2.128,2.128,0,0,0,.411-.046,10.942,10.942,0,0,0,9.054-9.038,4.839,4.839,0,0,0,.078-.8C-620.552,205.921-621.254,205.065-622.844,205.081Zm17.7.549c-.764,0-1.237.337-1.237.962v7.314c0,.473-.107.64-.58.64H-609.5V204.013c0-.626-.5-.963-1.282-.963s-1.269.337-1.269.963v10.534h-2.243c-.473,0-.58-.167-.58-.64v-7.314c0-.625-.489-.962-1.253-.962s-1.236.337-1.236.962v8.2a1.886,1.886,0,0,0,2.151,2.138h9.161a1.887,1.887,0,0,0,2.154-2.138v-8.2C-603.893,205.967-604.382,205.63-605.145,205.63Zm14.794-1.755h-8.533a2.01,2.01,0,0,0-2.23,2.122v8.322a2.011,2.011,0,0,0,2.23,2.122h8.549a2.011,2.011,0,0,0,2.23-2.122V206A2.015,2.015,0,0,0-590.351,203.875Zm-.319,9.466a.64.64,0,0,1-.734.7h-6.411a.64.64,0,0,1-.734-.7v-6.367a.639.639,0,0,1,.734-.7h6.411a.639.639,0,0,1,.734.7Z" transform="translate(-10.25 -0.73)" fill="#fff"/>
    <path id="パス_39" data-name="パス 39" d="M-684.551,239.247a4.518,4.518,0,0,0-3.143,5.56c2.4,8.634,2.4,27.692-8.459,32.622a4.516,4.516,0,0,0-2.245,5.978,4.516,4.516,0,0,0,4.114,2.651,4.5,4.5,0,0,0,1.863-.406c7.573-3.436,12.525-10.791,14.318-21.266a54.5,54.5,0,0,0-.889-22A4.518,4.518,0,0,0-684.551,239.247Zm-35.2,21.078a32.6,32.6,0,0,0,1.516-5.013,4.516,4.516,0,0,0-3.465-5.365,4.516,4.516,0,0,0-5.363,3.464q-.133.616-.3,1.229a23.875,23.875,0,0,0-8.44-1.77c-.764-.026-1.518-.012-2.269.022.038-.416.088-.831.132-1.247,3.778-.536,7.656-1.2,11.471-1.981a4.517,4.517,0,0,0,3.518-5.33,4.521,4.521,0,0,0-5.33-3.518c-2.834.581-5.578,1.07-8.2,1.482.029-.132.052-.269.081-.4a4.514,4.514,0,0,0-3.434-5.383,4.517,4.517,0,0,0-5.383,3.436c-.231,1.045-.461,2.264-.685,3.563-4.2.419-7.761.6-10.364.6a4.515,4.515,0,0,0-4.515,4.515,4.516,4.516,0,0,0,4.515,4.516c2.738,0,5.857-.162,9.176-.449-.065.725-.117,1.466-.17,2.209a22.839,22.839,0,0,0-10.958,9.269c-3.454,5.783-3.65,12.442-.527,17.81.988,1.7,3.548,4.391,9.6,3.441a26.774,26.774,0,0,0,5.969-1.778c.143.209.264.449.414.646a4.508,4.508,0,0,0,3.586,1.766,4.5,4.5,0,0,0,2.746-.934,4.5,4.5,0,0,0,1.132-5.847,46.707,46.707,0,0,0,10.3-9.755,8.546,8.546,0,0,1-2.16,8.657,4.516,4.516,0,0,0-.349,6.376,4.5,4.5,0,0,0,3.364,1.5,4.509,4.509,0,0,0,3.012-1.152c5.13-4.6,6.89-12.322,4.378-19.224A18.942,18.942,0,0,0-719.751,260.325ZM-751.362,276.6a8.579,8.579,0,0,1,.894-7.8,13,13,0,0,1,2.968-3.339,58.768,58.768,0,0,0,1.067,9.731A15.207,15.207,0,0,1-751.362,276.6Zm13.273-6.633a72.432,72.432,0,0,1-.406-7.977c.555-.047,1.1-.106,1.692-.106q.346,0,.7.013a14.965,14.965,0,0,1,4.791.9A36.128,36.128,0,0,1-738.09,269.967Zm37.733-11.1a4.5,4.5,0,0,0-2.312-.755,60.01,60.01,0,0,1,1.319-16.167,4.517,4.517,0,0,0-3.37-5.424,4.513,4.513,0,0,0-5.424,3.371c-2.254,9.653-2.2,21.933.138,28.562a4.514,4.514,0,0,0,3.7,2.981,4.747,4.747,0,0,0,.563.035,4.518,4.518,0,0,0,3.755-2.011l2.886-4.33A4.516,4.516,0,0,0-700.356,258.872Zm51.364-11.8c-.714.018-1.456.077-2.2.142.4-2.071.73-3.99.973-5.64a4.516,4.516,0,0,0-3.812-5.122,4.515,4.515,0,0,0-5.124,3.814c-.359,2.452-.906,5.426-1.589,8.651-3.367.842-6.442,1.808-8.591,2.54a4.512,4.512,0,0,0-2.819,5.729,4.516,4.516,0,0,0,5.729,2.819c1.115-.38,2.208-.726,3.288-1.054-2.043,7.72-4.58,15.478-7.181,20.514a4.519,4.519,0,0,0,1.941,6.085,4.5,4.5,0,0,0,2.069.5,4.519,4.519,0,0,0,4.016-2.445c3.526-6.827,6.765-17.466,9.073-27.045a34.02,34.02,0,0,1,4.45-.466,3.917,3.917,0,0,1,2.754.67,3.564,3.564,0,0,1,.557,2.531,48.151,48.151,0,0,1-3.286,14.728,4.519,4.519,0,0,0-6.115.478,4.516,4.516,0,0,0,.25,6.382l4.29,3.965a4.522,4.522,0,0,0,3.066,1.2,4.608,4.608,0,0,0,.66-.048,4.524,4.524,0,0,0,3.233-2.18,57.875,57.875,0,0,0,6.923-24.06c.245-4.793-1.554-7.7-3.106-9.3C-641.119,248.855-644.009,246.948-648.992,247.075Zm16.742,4.263a4.517,4.517,0,0,0-2.074,6.039,54.8,54.8,0,0,1,4.247,12.634l-.75.559a4.513,4.513,0,0,0-.921,6.318,4.507,4.507,0,0,0,3.623,1.817,4.489,4.489,0,0,0,2.7-.9l2.829-2.11a4.509,4.509,0,0,0,1.81-3.861c-.437-8.172-5.219-18.018-5.422-18.432A4.512,4.512,0,0,0-632.25,251.339Zm-6.338-2.826a4.515,4.515,0,0,0,3.906,2.242,4.5,4.5,0,0,0,2.27-.614,4.515,4.515,0,0,0,1.628-6.175l-1.439-2.47a4.52,4.52,0,0,0-6.175-1.628,4.515,4.515,0,0,0-1.628,6.175Zm15.645-10.9a4.517,4.517,0,0,0-6.338-.77,4.516,4.516,0,0,0-.77,6.339l1.679,2.143a4.511,4.511,0,0,0,3.558,1.73,4.5,4.5,0,0,0,2.782-.962,4.515,4.515,0,0,0,.769-6.339Zm38.24,9.921a73.019,73.019,0,0,0-18.426,7.649c-1.309-3.765-1.95-10.1-1.986-14.294a4.516,4.516,0,0,0-4.515-4.478h-.035a4.514,4.514,0,0,0-4.48,4.547c.018,2.36.3,13.475,3.75,20.049a16.171,16.171,0,0,0-4.719,11c0,3.294,1.369,14.047,18.986,14.047h10.414a4.516,4.516,0,0,0,4.515-4.516,4.515,4.515,0,0,0-4.515-4.515h-10.414c-9.955,0-9.955-3.776-9.955-5.016,0-7.3,15.91-13.747,23.615-15.725a4.514,4.514,0,0,0,3.253-5.492A4.521,4.521,0,0,0-584.7,247.534Zm11.676,4.809a4.516,4.516,0,0,0-1.834,6.117,4.518,4.518,0,0,0,6.118,1.834c7.85-4.228,18.516-5.431,21.264-.386a8.572,8.572,0,0,1,.565,7.87c-1.817,4.141-7.043,7.736-13.64,9.382a4.516,4.516,0,0,0-3.287,5.474,4.518,4.518,0,0,0,4.378,3.424,4.5,4.5,0,0,0,1.1-.136c9.53-2.379,16.719-7.669,19.723-14.516a17.415,17.415,0,0,0-.906-15.823C-545.162,245.291-560.98,245.853-573.027,252.343Zm8.548-8.331a175.788,175.788,0,0,0,17.624,3.269,4.706,4.706,0,0,0,.624.042,4.517,4.517,0,0,0,4.468-3.9,4.516,4.516,0,0,0-3.854-5.093c-9.84-1.363-16.567-3.057-16.634-3.074a4.506,4.506,0,0,0-5.489,3.263A4.517,4.517,0,0,0-564.479,244.011Zm259.987,23.029a4.515,4.515,0,0,0,4.515,4.515h14.5a4.515,4.515,0,0,0,4.515-4.515,19.037,19.037,0,0,0-19.015-19.016,19.037,19.037,0,0,0-19.016,19.016,19.037,19.037,0,0,0,19.016,19.016,19.649,19.649,0,0,0,13.632-4.971,4.516,4.516,0,0,0,.186-6.383,4.514,4.514,0,0,0-6.383-.185,10.734,10.734,0,0,1-7.434,2.508,10,10,0,0,1-9.985-9.985,10,10,0,0,1,9.985-9.985,9.992,9.992,0,0,1,8.9,5.47h-8.9A4.514,4.514,0,0,0-304.492,267.04Zm-69.1-4.046c-3.651.171-5.944.178-7.25-1.152a1.5,1.5,0,0,1-.208-1.663c.521-1.24,2.43-2.564,6.232-2.564,3.682,0,6.152.9,8.254,3a4.582,4.582,0,0,0,6.484,0,4.585,4.585,0,0,0,0-6.484c-3.879-3.878-8.562-5.686-14.738-5.686-7.049,0-12.539,3.062-14.69,8.191a10.66,10.66,0,0,0,2.126,11.638c4.274,4.348,9.791,4.086,14.218,3.882,4.378-.212,5.88-.057,6.748,1.273a1.148,1.148,0,0,1-.028,1.206c-.607,1.122-2.63,2.322-6.48,2.322-7.424,0-11.585-3.094-11.719-3.194a4.585,4.585,0,0,0-6.443.732,4.585,4.585,0,0,0,.732,6.443c.666.531,6.824,5.191,17.43,5.191,6.79,0,12.092-2.6,14.544-7.126a10.339,10.339,0,0,0-.354-10.584C-362.612,262.475-368.97,262.768-373.6,262.994Zm24.836-9.759a4.586,4.586,0,0,0-4.586,4.586V281.54a4.586,4.586,0,0,0,4.586,4.586,4.587,4.587,0,0,0,4.586-4.586V257.821A4.587,4.587,0,0,0-348.76,253.235Zm-3.249-10.613a4.64,4.64,0,0,0-1.335,3.251,4.809,4.809,0,0,0,.09.885,5.126,5.126,0,0,0,.252.866,6.962,6.962,0,0,0,.434.8,6.789,6.789,0,0,0,.559.686,4.694,4.694,0,0,0,3.253,1.354,4.613,4.613,0,0,0,3.231-1.354,5.077,5.077,0,0,0,.578-.686,4.842,4.842,0,0,0,.416-.8,5.458,5.458,0,0,0,.27-.866,4.883,4.883,0,0,0,.09-.885,4.574,4.574,0,0,0-1.354-3.251A4.763,4.763,0,0,0-352.009,242.622Zm28.881,34.333c-5.572,0-6.551-1.8-6.551-5.569V257.615h6.551a4.586,4.586,0,0,0,4.586-4.586,4.585,4.585,0,0,0-4.586-4.586h-6.551v-2.575a4.585,4.585,0,0,0-4.586-4.586,4.585,4.585,0,0,0-4.586,4.586v25.518c0,9.368,5.73,14.741,15.722,14.741a4.586,4.586,0,0,0,4.586-4.586A4.585,4.585,0,0,0-323.128,276.954Z" transform="translate(0 -7.248)" fill="#f8b62a"/>
    <circle id="楕円形_7" data-name="楕円形 7" cx="24.8" cy="24.8" r="24.8" transform="translate(-528.937 198.879)" fill="#f8b62a"/>
    <path id="パス_40" data-name="パス 40" d="M-451.053,222.331a1.816,1.816,0,0,0,1.264-.906c.242-.406.089-.73.259-1.094.075-.162.041-1.241-1.7-.9-.939.182-1.337,1.43-1.3,1.952A1.31,1.31,0,0,0-451.053,222.331Zm8.252-.488a1.551,1.551,0,0,0,.648-1.5,1.277,1.277,0,0,0-1.271-.989,1.451,1.451,0,0,0-1.022.316c-.247.185-.125.482-.415.764a1.136,1.136,0,0,0,.207,1.4A1.391,1.391,0,0,0-442.8,221.843Zm13.355,1.218a4.605,4.605,0,0,0-3.5-1.832h-.043c-1.809,0-4.349,1.415-4.436,3.76-.052,1.391,1.175,3.082,2.918,4.02a5.25,5.25,0,0,0,2.9.666c-.917,2.911-4.585,7.641-12.158,7.641l-.182,0c-3.23-.032-5.687-1-7.306-2.883a9.557,9.557,0,0,1-2-7.109,1.134,1.134,0,0,0-.966-1.28,1.141,1.141,0,0,0-1.28.965,11.751,11.751,0,0,0,2.532,8.9c2.063,2.4,5.092,3.632,9,3.671h.2c8.816,0,13.8-5.914,14.573-10.2a.872.872,0,0,0,.084-.186C-428.48,226.778-428.62,224.2-429.446,223.061Zm-1.165,3.832a5.185,5.185,0,0,1-1.542-1.751.94.94,0,0,0-1.185-.582.929.929,0,0,0-.586,1.174,6.149,6.149,0,0,0,1.447,2.036,4,4,0,0,1-1.142-.406,3.46,3.46,0,0,1-1.936-2.306c.045-1.208,1.7-1.962,2.57-1.962h.019a2.737,2.737,0,0,1,2.008,1.062A5.129,5.129,0,0,1-430.611,226.893Z" transform="translate(-61.073 -4.096)" fill="#fff"/>
  </g>
</svg>
