<?xml version="1.0" standalone="no"?>
<!DOCTYPE svg PUBLIC "-//W3C//DTD SVG 20010904//EN"
 "http://www.w3.org/TR/2001/REC-SVG-20010904/DTD/svg10.dtd">
<svg version="1.0" xmlns="http://www.w3.org/2000/svg"
 width="700.000000pt" height="700.000000pt" viewBox="0 0 700.000000 700.000000"
 preserveAspectRatio="xMidYMid meet">
<metadata>
Created by potrace 1.14, written by Peter Selinger 2001-2017
</metadata>
<g transform="translate(0.000000,700.000000) scale(0.100000,-0.100000)"
fill="#000000" stroke="none">
<path d="M4580 6991 c-14 -3 -45 -18 -70 -32 -25 -15 -63 -32 -85 -39 -22 -7
-67 -33 -100 -58 -33 -25 -124 -76 -202 -114 -177 -85 -256 -131 -308 -179
-22 -20 -67 -49 -99 -63 -33 -15 -82 -47 -110 -72 -28 -25 -64 -58 -81 -73
-37 -33 -110 -160 -141 -244 -12 -34 -27 -75 -33 -91 l-12 -29 -28 44 c-18 30
-56 64 -112 102 -46 32 -123 92 -170 134 -167 148 -383 266 -578 313 -68 17
-163 47 -210 67 -188 79 -339 93 -497 47 -49 -14 -109 -37 -134 -51 -35 -19
-67 -27 -145 -33 -177 -15 -234 -28 -345 -79 -58 -27 -121 -54 -140 -60 -51
-16 -121 -60 -195 -121 -53 -44 -73 -70 -109 -139 -24 -47 -52 -115 -61 -150
-25 -97 -45 -129 -129 -204 -94 -85 -158 -173 -207 -286 l-37 -87 -1 -165 c0
-90 -5 -198 -11 -239 -6 -41 -19 -156 -30 -255 l-19 -180 51 -110 c28 -60 61
-136 74 -168 12 -32 37 -75 54 -97 18 -22 40 -67 50 -100 27 -89 173 -304 362
-532 84 -100 234 -232 365 -322 23 -15 49 -38 57 -50 26 -41 114 -88 244 -131
70 -23 145 -51 167 -63 51 -26 167 -145 193 -197 25 -51 43 -67 117 -103 74
-37 182 -68 256 -75 58 -5 143 -36 191 -69 14 -10 95 -41 180 -69 130 -43 171
-62 273 -127 66 -41 147 -92 180 -113 67 -42 226 -97 357 -124 48 -10 94 -23
103 -29 11 -8 16 -38 20 -126 2 -63 9 -162 14 -220 6 -58 13 -139 17 -180 l6
-75 -29 27 c-16 15 -56 41 -90 57 -34 17 -76 43 -95 59 -54 47 -201 130 -305
174 -54 22 -114 53 -134 69 -20 15 -65 39 -100 53 -35 13 -124 48 -198 76 -73
28 -156 55 -185 60 -50 9 -195 58 -289 99 -27 12 -74 24 -105 28 -32 3 -79 17
-107 30 -27 12 -68 23 -90 23 -22 0 -65 12 -95 26 -33 15 -87 29 -135 35 -44
5 -107 16 -140 24 -33 8 -92 15 -131 15 -40 0 -91 7 -115 16 -36 13 -86 16
-273 15 -199 -1 -238 -4 -294 -21 -83 -26 -122 -50 -147 -92 -17 -29 -20 -50
-19 -158 1 -168 37 -457 63 -509 11 -21 23 -59 27 -83 3 -23 21 -74 39 -113
19 -38 55 -113 79 -165 102 -213 140 -276 245 -405 140 -172 248 -271 361
-330 14 -7 44 -31 68 -53 23 -22 64 -47 90 -57 26 -10 65 -28 88 -41 22 -13
65 -32 95 -43 30 -10 77 -30 106 -45 33 -18 85 -32 150 -42 101 -16 246 -40
320 -53 106 -19 708 6 800 34 26 8 74 15 106 15 32 0 74 7 95 16 47 19 174 44
228 44 26 0 51 7 66 19 40 32 231 112 239 100 3 -6 12 -43 18 -82 7 -40 24
-112 38 -162 14 -50 33 -120 42 -158 l16 -67 182 0 183 0 0 23 c0 45 28 57
161 68 68 6 156 17 194 25 39 8 117 24 175 36 152 30 531 158 679 230 70 33
147 66 173 73 25 7 64 26 85 43 21 17 82 56 136 87 169 97 288 179 404 279
114 98 161 149 203 221 13 22 54 81 90 130 85 114 112 158 135 220 10 28 40
97 66 155 61 134 103 285 94 343 -5 30 -1 54 13 84 17 39 18 63 15 265 -5 250
-13 293 -95 498 -50 125 -117 212 -191 249 l-49 24 -121 -38 c-67 -20 -142
-47 -167 -59 -141 -70 -583 -299 -625 -324 -126 -75 -233 -131 -266 -140 -32
-8 -73 -34 -229 -138 -19 -13 -71 -55 -115 -94 -44 -38 -124 -108 -178 -155
-54 -47 -113 -103 -130 -123 -17 -20 -63 -71 -102 -113 -39 -42 -100 -119
-135 -170 -35 -52 -74 -107 -87 -123 -13 -16 -36 -52 -50 -80 -14 -28 -37 -64
-53 -81 -28 -31 -132 -222 -144 -265 -4 -14 -26 -72 -49 -130 l-42 -105 -7 70
c-5 39 -15 90 -22 115 -8 25 -17 94 -21 154 -4 60 -11 120 -17 135 -11 27 -28
180 -32 291 -2 36 -6 88 -10 115 -22 139 -24 321 -6 365 16 39 93 95 162 119
79 27 135 58 181 100 44 39 201 147 254 175 17 8 65 40 107 70 42 30 100 68
129 85 29 17 77 53 106 81 29 27 58 50 64 50 7 0 45 20 84 45 40 24 94 50 120
56 45 11 77 29 207 115 64 42 163 158 178 208 7 22 28 53 47 70 19 17 48 46
65 65 17 19 62 64 101 100 38 36 101 98 140 137 38 39 91 85 116 102 25 17 51
38 59 47 7 9 53 43 101 76 48 33 99 75 112 92 14 18 55 66 92 107 107 120 153
191 211 326 63 147 94 249 94 315 0 25 9 72 20 104 11 32 20 79 20 104 0 25 7
75 16 111 15 63 24 446 11 467 -3 5 -11 49 -18 99 -10 75 -19 103 -62 184 -27
52 -74 133 -104 180 -30 47 -86 139 -125 205 -60 102 -90 140 -197 248 -69 71
-142 137 -161 147 -20 10 -58 37 -85 59 -28 23 -75 51 -105 62 -30 11 -73 37
-95 58 -73 70 -159 134 -211 158 -84 38 -280 73 -413 73 -64 0 -154 7 -201 15
-84 15 -252 18 -300 6z m-805 -2070 c105 -48 147 -167 93 -263 -50 -89 -221
-138 -298 -85 -53 36 -69 65 -76 142 -5 64 -4 75 23 124 21 41 39 60 72 78 54
28 130 30 186 4z m-739 -76 c59 -17 100 -53 125 -109 24 -52 24 -100 0 -152
-24 -53 -64 -81 -152 -106 -84 -23 -125 -19 -170 19 -42 36 -59 80 -58 150 1
107 40 168 126 199 49 17 69 17 129 -1z m1335 -496 c19 -19 21 -29 16 -93 -8
-104 -31 -166 -93 -259 -76 -112 -115 -150 -198 -193 -39 -21 -99 -55 -133
-76 -46 -29 -80 -42 -130 -49 -37 -6 -135 -23 -218 -40 -432 -83 -621 -62
-874 98 -83 53 -141 99 -204 164 -80 81 -88 94 -89 129 -1 76 55 132 116 116
14 -3 74 -54 134 -114 141 -141 188 -168 334 -193 161 -28 285 -33 426 -20
128 13 160 20 307 70 50 17 116 38 148 46 42 11 72 28 104 58 62 57 161 202
169 246 17 105 40 131 116 131 36 0 54 -6 69 -21z m1461 -2196 c65 -70 63
-101 -10 -200 -32 -43 -75 -107 -95 -142 -21 -35 -55 -84 -76 -110 -67 -81
-127 -177 -141 -225 -13 -47 -111 -166 -300 -361 -43 -44 -96 -107 -118 -140
-22 -33 -67 -88 -101 -122 -64 -66 -346 -260 -390 -269 -14 -3 -83 -23 -153
-46 -113 -36 -130 -39 -157 -28 -19 8 -34 23 -40 44 -14 41 1 135 23 152 10 7
49 19 89 28 46 11 92 30 132 56 33 21 85 48 115 60 30 12 70 35 90 51 19 16
69 56 111 89 42 32 93 83 114 112 61 85 148 189 243 289 52 56 125 151 180
234 50 77 117 176 147 220 30 44 79 123 109 175 83 145 169 195 228 133z
m-4287 -252 c22 -11 85 -40 139 -66 55 -25 143 -74 195 -109 53 -34 123 -74
155 -89 33 -15 78 -45 102 -67 49 -45 130 -88 226 -119 36 -12 72 -29 79 -37
34 -41 92 -75 162 -93 41 -12 102 -37 134 -56 32 -19 94 -47 137 -61 44 -14
99 -39 122 -55 23 -16 55 -34 69 -39 51 -19 248 -42 307 -35 53 5 60 4 83 -19
20 -20 25 -35 25 -75 0 -42 -5 -54 -30 -79 -48 -49 -57 -49 -310 -11 -110 17
-289 68 -359 103 -37 19 -111 51 -166 71 -55 20 -122 49 -150 64 -110 61 -263
149 -315 182 -30 20 -95 57 -145 84 -49 26 -138 77 -198 112 -59 35 -153 86
-210 113 -67 32 -115 62 -142 89 -21 23 -45 41 -52 41 -29 0 -43 72 -22 111
14 27 68 59 99 59 14 0 43 -9 65 -19z"/>
</g>
</svg>
