<svg xmlns="http://www.w3.org/2000/svg" width="32.972" height="40.719" viewBox="0 0 32.972 40.719">
  <g id="グループ_151" data-name="グループ 151" transform="matrix(0.996, 0.087, -0.087, 0.996, 3.336, 0)">
    <g id="グループ_20" data-name="グループ 20" transform="translate(0 0)">
      <path id="パス_27" data-name="パス 27" d="M29.68,6.773a3.119,3.119,0,0,0-.208-.5c-.061-.166-.128-.328-.2-.489s-.181-.305-.262-.463S28.86,5,28.789,4.836s-.147-.314-.23-.465-.143-.319-.237-.465-.224-.266-.327-.407-.214-.27-.323-.407A3.36,3.36,0,0,0,27.34,2.7c-.127-.116-.278-.2-.416-.3s-.231-.264-.373-.364-.329-.128-.469-.231a4.374,4.374,0,0,1-.321-.352c-.116-.108-.221-.226-.334-.331a3.972,3.972,0,0,0-.369-.3,1.828,1.828,0,0,0-.432-.185A3.968,3.968,0,0,0,24.175.51c-.153-.039-.3-.106-.452-.132S23.41.357,23.254.339,22.941.31,22.786.293,22.477.2,22.319.172s-.308-.1-.465-.121-.323-.029-.48-.04a2.61,2.61,0,0,0-.484,0,1.863,1.863,0,0,0-.441.2,4.127,4.127,0,0,0-.469.135c-.14.079-.273.172-.412.248a2.935,2.935,0,0,1-.43.2c-.148.051-.285.129-.429.179s-.3.091-.441.146-.284.124-.423.189a4.426,4.426,0,0,0-.41.216c-.136.082-.253.2-.392.272s-.325.069-.461.145a4.7,4.7,0,0,0-.38.291,2.438,2.438,0,0,0-.4.267c-.108.113-.181.249-.271.36a4.154,4.154,0,0,0-.26.364,3.593,3.593,0,0,0-.189.4,4.17,4.17,0,0,0-.2.421,1.524,1.524,0,0,0-.2-.415,2.629,2.629,0,0,0-.329-.293c-.1-.095-.229-.173-.344-.274s-.221-.189-.327-.3-.189-.241-.3-.348-.229-.2-.348-.3-.244-.176-.371-.267-.226-.2-.36-.284-.258-.171-.394-.243-.277-.134-.418-.2-.294-.091-.439-.148S10.763.881,10.615.83s-.285-.137-.43-.2S9.911.473,9.766.412s-.3-.106-.449-.152a2.7,2.7,0,0,0-.462-.1A2.153,2.153,0,0,0,8.377.133,4.457,4.457,0,0,0,7.906.2c-.153.033-.306.071-.46.1S7.154.466,7,.483,6.683.45,6.528.459s-.31.018-.464.031A4.434,4.434,0,0,0,5.6.516a2.692,2.692,0,0,0-.454.131C5,.7,4.851.77,4.7.818S4.383.892,4.23.942a4.285,4.285,0,0,0-.441.2,2.387,2.387,0,0,0-.4.271,1.686,1.686,0,0,0-.338.27,2.965,2.965,0,0,0-.236.364c-.072.123-.159.241-.225.369s-.071.29-.142.413a3.032,3.032,0,0,1-.221.377,3.9,3.9,0,0,1-.425.338c-.13.121-.278.224-.409.344a4.184,4.184,0,0,0-.344.412,1.834,1.834,0,0,0-.27.452,2.878,2.878,0,0,0-.225.485c-.041.171,0,.36-.02.537S.481,6.122.46,6.3s-.051.354-.081.527-.068.346-.107.52-.057.348-.09.522S.106,8.21.09,8.385A3.221,3.221,0,0,0,0,8.917a2.58,2.58,0,0,0,.186.506,4.874,4.874,0,0,0,.184.494c.069.162.074.352.145.515s.218.295.275.461.058.346.123.5.155.307.231.463.161.3.247.453.158.3.254.45.2.285.292.432.2.282.3.426.182.3.293.431a4.517,4.517,0,0,0,.346.392c.113.109.232.211.342.323s.224.22.333.331.251.191.364.3.181.267.3.367a2.635,2.635,0,0,0,.39.281c.138.076.292.128.436.194s.3.109.439.178a3.037,3.037,0,0,1,.415.229,1.756,1.756,0,0,1,.35.345c.1.127.218.248.309.384s.106.334.205.458a1.53,1.53,0,0,0,.4.3,2.592,2.592,0,0,0,.426.218c.148.059.3.123.448.171s.331.026.478.08a2.792,2.792,0,0,1,.429.223c.138.079.25.2.389.271s.3.107.44.171.292.118.432.183.288.131.423.2a3.563,3.563,0,0,1,.374.294c.129.094.26.182.38.281s.265.181.387.275a3.35,3.35,0,0,0,.372.3,3.5,3.5,0,0,0,.446.179c.152.059.289.157.436.206s.321.067.462.123a2.1,2.1,0,0,1,.452.172c.016.011.023.056.038.067-.01.151-.057.3-.064.452s-.006.3-.01.453.039.3.037.454-.039.3-.038.453.033.3.035.452-.031.275-.027.426c-.11-.109-.178-.225-.293-.329s-.293-.134-.413-.232-.21-.232-.334-.325-.253-.178-.38-.267-.246-.189-.376-.274-.278-.138-.411-.218-.282-.13-.416-.206-.222-.238-.359-.311-.284-.126-.422-.2-.269-.156-.409-.223-.28-.135-.42-.2-.28-.135-.421-.2-.318-.068-.464-.133-.286-.14-.433-.2-.288-.137-.435-.2-.279-.159-.426-.22-.328-.038-.477-.1-.272-.181-.421-.237-.322-.045-.473-.1-.273-.186-.425-.236-.324-.035-.476-.081-.3-.106-.455-.148-.3-.095-.46-.132-.324-.007-.48-.04-.3-.136-.455-.162-.316-.044-.474-.065-.321.008-.48-.006-.316-.025-.475-.032-.317-.083-.476-.083-.317.072-.476.08a.827.827,0,0,0-.391.122.759.759,0,0,0-.3.276.951.951,0,0,0-.1.4c-.013.157-.043.311-.049.469s.008.314.009.471,0,.314.008.471.005.315.021.471-.015.32.008.475.114.3.144.455.011.32.048.473.152.284.2.435.071.306.124.454.117.291.176.436.139.28.206.422.094.3.168.442.144.28.226.414.187.253.276.383.162.27.259.4.2.24.307.358.181.262.292.374.262.181.379.287.256.18.379.279.2.257.328.348.288.134.422.217.255.183.395.259.29.12.433.187.269.212.422.273.321.091.477.143.326.063.485.107.323.065.484.1.31.137.472.166.331.026.495.048.324.083.489.1.335-.05.5-.041.328.066.493.071.331,0,.5,0,.332.019.5.015.331-.008.5-.016c.149-.007.3-.068.446-.076s.3.032.451.022.293-.1.442-.114.3-.018.446-.037.312.046.458.019.273-.16.417-.2.283-.086.423-.135.327-.1.462-.165c.022.154.041.352.064.506s.008.313.033.466.076.3.1.456.07.3.1.456,0,.316.028.469.09.3.12.451.026.323.06.482.147.3.182.456.02.325.053.484.114.307.144.466.03.324.054.483.052.32.07.48.032.323.042.484.027.325.026.486-.085.32-.1.48.018.327-.01.486a4.734,4.734,0,0,1-.121.469.723.723,0,0,0,.057.49.7.7,0,0,0,.3.374.894.894,0,0,0,.477.127.759.759,0,0,0,.474-.137.769.769,0,0,0,.26-.421c.045-.157.148-.3.179-.459s-.022-.333,0-.494.052-.32.059-.482.068-.324.066-.487-.023-.326-.033-.488-.044-.323-.061-.485-.038-.323-.061-.484,0-.33-.025-.49-.141-.306-.171-.465-.014-.329-.046-.488-.058-.321-.09-.479-.132-.322-.165-.489-.051-.345-.083-.513a.9.9,0,0,0,.154-.133c.158,0,.315-.046.474-.052s.319.042.477.032.318-.009.476-.023.314-.052.472-.069.314-.04.472-.061.321-.005.477-.031.309-.076.465-.106.309-.075.464-.108.307-.08.461-.118.315-.051.468-.093.3-.1.454-.146.3-.116.446-.167.29-.131.438-.186.326-.039.472-.1.265-.188.409-.253.287-.134.429-.2.291-.127.43-.2.281-.148.417-.228.291-.133.425-.218.269-.171.4-.261.261-.183.387-.278.268-.176.39-.277.232-.222.349-.334.172-.276.281-.4.205-.24.306-.366.235-.22.329-.352.2-.251.287-.387.13-.294.209-.435.155-.279.225-.423.187-.267.25-.414.131-.295.186-.445.1-.306.151-.458-.011-.335.028-.49.183-.288.212-.444-.04-.331-.02-.489.056-.315.065-.474,0-.319,0-.478.077-.326.064-.484-.075-.316-.1-.473-.054-.318-.095-.472-.094-.307-.15-.457-.084-.315-.155-.459a4.681,4.681,0,0,0-.267-.4.977.977,0,0,0-.415-.353.671.671,0,0,0-.515.033c-.15.055-.324.046-.475.1s-.315.072-.465.127-.291.138-.441.193-.29.139-.44.194-.3.1-.454.156-.291.134-.441.192-.3.122-.445.181-.3.1-.451.164-.28.158-.427.221-.294.125-.44.191-.289.136-.433.205-.327.061-.469.133-.28.156-.421.233-.294.133-.432.213-.263.186-.4.27-.241.216-.375.3-.28.156-.411.25-.252.2-.379.295-.269.176-.392.28-.218.236-.337.344-.237.192-.346.3-.215.215-.321.324-.207.223-.31.336-.185.242-.284.358-.212.219-.307.338-.153.265-.244.388-.237.2-.323.33-.153.264-.235.392-.19.242-.267.373-.108.289-.18.423-.144.268-.21.4-.15.292-.21.431c-.015-.179,0-.38-.013-.56s-.086-.356-.094-.536c-.006-.152.018-.305.012-.457s.025-.305.019-.457-.087-.3-.092-.452.058-.306.054-.457-.078-.3-.081-.454.083-.3.082-.457-.046-.3-.045-.455.04-.3.044-.455-.032-.3-.026-.456.083-.283.093-.435c.069-.063.076-.164.158-.223a2.607,2.607,0,0,1,.411-.25c.137-.065.313-.062.466-.125s.294-.113.443-.18.242-.217.384-.3.277-.136.417-.215.265-.158.4-.237.294-.11.434-.188.255-.182.395-.258.28-.135.416-.216.285-.129.419-.212.231-.218.367-.3.309-.089.446-.168a2.216,2.216,0,0,1,.423-.21c.15-.048.313-.056.47-.1s.285-.165.435-.219a2.125,2.125,0,0,0,.419-.214,1.619,1.619,0,0,0,.368-.3c.1-.119.249-.212.347-.344s.135-.308.239-.43a2.033,2.033,0,0,1,.406-.272c.126-.09.194-.257.315-.355s.256-.174.374-.276.273-.158.391-.26.211-.228.332-.328a3.2,3.2,0,0,1,.409-.233c.134-.08.237-.218.376-.294s.286-.135.418-.222a2.633,2.633,0,0,0,.4-.258c.128-.124.244-.26.377-.378s.262-.245.391-.365.252-.257.37-.387a3.268,3.268,0,0,0,.3-.441,3.615,3.615,0,0,0,.242-.47c.075-.162.2-.3.258-.472s.141-.332.194-.5.029-.369.086-.535.149-.323.2-.492.045-.353.086-.524.13-.333.159-.506.023-.353.037-.528.077-.351.085-.529.023-.357.023-.535-.033-.357-.046-.534S29.71,6.946,29.68,6.773Z" fill="#600"/>
    </g>
    <g id="グループ_21" data-name="グループ 21" transform="translate(16.815 22.324)">
      <path id="パス_28" data-name="パス 28" d="M7.1.179c-.131.152-.23.336-.363.5s-.216.347-.347.506-.279.3-.409.455-.234.334-.365.491-.245.327-.378.482-.269.307-.406.459-.333.248-.473.4-.3.279-.442.42-.278.3-.43.433-.254.336-.415.46-.354.214-.522.327-.323.261-.5.36-.4.115-.587.2a6.062,6.062,0,0,1-.551.272,5.921,5.921,0,0,1-.608.1C.1,6.07.067,6.245.037,6.4s-.079.361.039.488a.508.508,0,0,0,.491.084c.2-.042.388-.1.579-.161s.421-.028.606-.106.359-.2.537-.288.371-.17.543-.277.348-.213.512-.331.291-.286.448-.414.243-.332.394-.467.3-.261.447-.4.307-.261.446-.407.314-.258.449-.408.31-.266.442-.418.16-.4.289-.549.258-.31.386-.465.286-.289.414-.443.22-.344.348-.5.28-.3.41-.446A.477.477,0,0,0,7.98.443.679.679,0,0,0,7.646.014a.507.507,0,0,0-.492.207C7.121.239,7.1.179,7.1.179Z" transform="translate(0)" fill="#f8b62b"/>
    </g>
    <g id="グループ_22" data-name="グループ 22" transform="translate(4.268 21.793)">
      <path id="パス_29" data-name="パス 29" d="M.159.736c.16.131.265.334.429.461s.377.191.543.315.347.228.515.349.334.246.5.364.344.231.517.347.346.228.52.341.32.27.495.382.341.238.517.348.32.249.5.365.372.177.551.288.383.161.564.265.344.231.528.325.387.151.575.229a5.655,5.655,0,0,0,.587.184,3.975,3.975,0,0,0,.6.134,3.119,3.119,0,0,0,.613.113.577.577,0,0,0,.46-.276.647.647,0,0,0-.015-.533c-.07-.143-.229-.154-.442-.139a2.3,2.3,0,0,1-.663-.105,3.646,3.646,0,0,1-.644-.168c-.2-.087-.354-.279-.546-.382s-.417-.157-.606-.256S5.9,3.409,5.7,3.3s-.448-.125-.64-.241-.315-.346-.5-.465c-.159-.1-.362-.129-.521-.23s-.322-.194-.479-.3-.245-.31-.4-.414-.331-.178-.486-.285-.288-.242-.44-.351-.3-.229-.446-.341S1.45.5,1.3.383.936.238.791.119a.368.368,0,0,0-.4-.094.474.474,0,0,0-.35.281.384.384,0,0,0,.1.464C.142.776.159.736.159.736Z" transform="translate(0 0)" fill="#f8b62b"/>
    </g>
    <g id="グループ_23" data-name="グループ 23" transform="translate(10.027 11.78)">
      <path id="パス_30" data-name="パス 30" d="M.12,1.1a3.664,3.664,0,0,0,.465.624,3.583,3.583,0,0,0,.593.5,4.011,4.011,0,0,0,.637.446,4.769,4.769,0,0,0,.72.319,5.747,5.747,0,0,0,.778.121,6.615,6.615,0,0,0,.782.025,7.412,7.412,0,0,0,.776-.072c.249-.022.5-.043.756-.083S6.153,3,6.4,2.935a5.507,5.507,0,0,0,.7-.324,3.807,3.807,0,0,0,.69-.316,2.68,2.68,0,0,0,.519-.546,2.268,2.268,0,0,0,.419-.615A2.672,2.672,0,0,0,8.907.4C8.943.075,8.733-.01,8.476,0a.41.41,0,0,0-.443.414,1.482,1.482,0,0,1-.462.759,2.047,2.047,0,0,1-.653.587,4.309,4.309,0,0,1-.871.168,7.52,7.52,0,0,1-.856.226c-.322.031-.628.018-.883.023a5.686,5.686,0,0,1-.775-.052,4.454,4.454,0,0,1-.758-.157,3.618,3.618,0,0,1-.752-.226,2.994,2.994,0,0,1-.617-.492A2.879,2.879,0,0,1,.914.635.5.5,0,0,0,.251.368a.594.594,0,0,0-.181.764C.075,1.138.12,1.1.12,1.1Z" transform="translate(0 0)" fill="#f8b62b"/>
    </g>
    <g id="グループ_24" data-name="グループ 24" transform="translate(11.778 9.049)">
      <path id="パス_31" data-name="パス 31" d="M.856.807C.795.794.8.8.87.832A.188.188,0,0,1,1,.966C1,.977,1,.989,1,1,1,.975.982.951.983.926S1.022.808,1.01.793C1.054.845.864.979.838,1,.888.991.89.984.852.991s-.03.018.021.015c.1.01-.039-.028.021-.015C.937,1,.854.955.914,1.01a.154.154,0,0,1-.068-.1C.841.883.851.767.836.818A.327.327,0,0,1,.867.74.247.247,0,0,1,1.024.682.524.524,0,0,0,.863.717C.829.726.791.731.757.743.669.775.764.79.8.786c.01.006.023-.01.033,0a.406.406,0,0,1-.07-.06.52.52,0,0,0-.694.19.5.5,0,0,0,.191.67.876.876,0,0,0,.766.118.665.665,0,0,0,.126-.028l-.086.011a.866.866,0,0,0,.154-.006.817.817,0,0,0,.19-.084.807.807,0,0,0,.34-.383A.852.852,0,0,0,1.792.7a.8.8,0,0,0-.25-.442A1.038,1.038,0,0,0,1.072.021a1.077,1.077,0,0,0-.53.028.742.742,0,0,0-.4.331A.994.994,0,0,0,0,.915a1.071,1.071,0,0,0,.13.547.628.628,0,0,0,.463.295.49.49,0,0,0,.594-.343C1.241,1.18,1.132.837.858.8Z" transform="translate(0 0)" fill="#f8b62b"/>
    </g>
    <g id="グループ_25" data-name="グループ 25" transform="translate(15.043 8.954)">
      <path id="パス_32" data-name="パス 32" d="M.856.808C.795.794.8.8.871.832A.188.188,0,0,1,1,.966C1,.977,1,.989,1,1,1,.975.982.951.983.926S1.022.808,1.01.793C1.054.845.864.979.838,1,.888.991.89.984.852.991s-.03.018.021.015c.1.01-.039-.028.021-.015C.937,1,.854.956.914,1.01a.154.154,0,0,1-.068-.1C.841.883.851.767.836.818A.3.3,0,0,1,.867.74.248.248,0,0,1,1.024.682.525.525,0,0,0,.863.717C.829.726.791.731.757.743.669.775.764.79.8.787c.01.006.023-.01.033,0a.414.414,0,0,1-.07-.06A.52.52,0,0,0,.065.913a.5.5,0,0,0,.191.67.876.876,0,0,0,.766.118.666.666,0,0,0,.125-.028l-.086.011a.851.851,0,0,0,.154-.006.817.817,0,0,0,.19-.084.807.807,0,0,0,.34-.383A.851.851,0,0,0,1.792.7.8.8,0,0,0,1.543.262,1.039,1.039,0,0,0,1.072.021,1.077,1.077,0,0,0,.541.049a.743.743,0,0,0-.4.331A.994.994,0,0,0,0,.915a1.07,1.07,0,0,0,.13.547.628.628,0,0,0,.463.3.491.491,0,0,0,.594-.343C1.241,1.18,1.132.837.858.8Z" transform="translate(0 0)" fill="#f8b62b"/>
    </g>
  </g>
</svg>
