<svg xmlns="http://www.w3.org/2000/svg" width="23.123" height="28.555" viewBox="0 0 23.123 28.555">
  <g id="グループ_150" data-name="グループ 150" transform="matrix(0.996, -0.087, 0.087, 0.996, 0, 1.818)">
    <g id="グループ_20" data-name="グループ 20" transform="translate(0 0)">
      <path id="パス_27" data-name="パス 27" d="M20.814,4.749a2.19,2.19,0,0,0-.146-.348c-.042-.116-.089-.23-.144-.343s-.127-.214-.184-.325-.1-.23-.152-.342-.1-.22-.161-.326-.1-.224-.166-.326-.157-.187-.229-.285-.15-.189-.227-.285a2.363,2.363,0,0,0-.233-.275c-.089-.082-.195-.14-.292-.213s-.162-.185-.262-.255-.231-.09-.329-.162a3.067,3.067,0,0,1-.225-.247c-.082-.075-.155-.158-.235-.232a2.789,2.789,0,0,0-.259-.208,1.281,1.281,0,0,0-.3-.13,2.781,2.781,0,0,0-.315-.09c-.107-.028-.208-.074-.317-.093s-.22-.014-.329-.028-.22-.02-.329-.032S15.763.14,15.652.121s-.216-.067-.326-.085S15.1.015,14.989.007a1.83,1.83,0,0,0-.339,0,1.306,1.306,0,0,0-.309.144,2.9,2.9,0,0,0-.329.094c-.1.055-.191.121-.289.174a2.06,2.06,0,0,1-.3.142c-.1.036-.2.091-.3.126s-.209.064-.309.1-.2.087-.3.133a3.109,3.109,0,0,0-.287.151c-.1.058-.178.139-.275.191s-.228.049-.323.1a3.3,3.3,0,0,0-.266.2,1.709,1.709,0,0,0-.279.187c-.076.079-.127.175-.19.252a2.9,2.9,0,0,0-.182.255,2.526,2.526,0,0,0-.133.283,2.928,2.928,0,0,0-.143.3,1.069,1.069,0,0,0-.141-.291,1.84,1.84,0,0,0-.23-.205c-.073-.066-.161-.121-.241-.192s-.155-.132-.23-.21S9.46,1.776,9.382,1.7s-.161-.139-.244-.209-.171-.123-.26-.187-.158-.142-.253-.2S8.445.985,8.35.935,8.155.841,8.056.8,7.85.732,7.749.692s-.2-.074-.3-.11-.2-.1-.3-.14S6.95.331,6.848.289,6.639.215,6.534.183A1.891,1.891,0,0,0,6.21.11,1.51,1.51,0,0,0,5.875.093a3.126,3.126,0,0,0-.331.048c-.107.023-.215.05-.323.073s-.2.112-.314.124S4.687.316,4.578.322s-.217.013-.326.022a3.109,3.109,0,0,0-.329.018,1.891,1.891,0,0,0-.318.092c-.1.039-.2.087-.313.12s-.219.052-.326.087A3.008,3.008,0,0,0,2.657.8a1.673,1.673,0,0,0-.278.19,1.182,1.182,0,0,0-.237.189,2.09,2.09,0,0,0-.165.255c-.05.086-.111.169-.158.259s-.05.2-.1.29a2.123,2.123,0,0,1-.155.265,2.73,2.73,0,0,1-.3.237c-.091.085-.195.157-.287.241a2.926,2.926,0,0,0-.241.289,1.283,1.283,0,0,0-.19.317,2.013,2.013,0,0,0-.158.34c-.029.12,0,.252-.014.377s-.04.245-.054.369-.036.248-.057.369-.048.243-.075.365-.04.244-.063.366-.053.241-.065.364A2.259,2.259,0,0,0,0,6.253a1.809,1.809,0,0,0,.13.355,3.426,3.426,0,0,0,.129.347c.048.113.052.247.1.361s.153.207.193.323.041.243.086.354.109.216.162.324.113.211.173.317.111.212.178.316.139.2.2.3.14.2.21.3.127.207.206.3a3.152,3.152,0,0,0,.242.275c.079.077.163.148.24.226s.157.155.234.232.176.134.255.209.127.188.212.257a1.846,1.846,0,0,0,.273.2c.1.053.2.09.306.136s.21.076.308.125a2.126,2.126,0,0,1,.291.161,1.233,1.233,0,0,1,.245.242c.07.089.153.174.217.269s.074.235.144.321a1.071,1.071,0,0,0,.281.209,1.817,1.817,0,0,0,.3.153c.1.041.208.086.314.12s.232.019.335.056a1.959,1.959,0,0,1,.3.156c.1.055.175.142.273.19s.21.075.309.12.205.083.3.129.2.092.3.143a2.5,2.5,0,0,1,.262.206c.091.066.182.128.267.2s.185.127.271.193a2.351,2.351,0,0,0,.261.207,2.458,2.458,0,0,0,.313.126c.107.042.2.11.306.144s.225.047.324.086a1.475,1.475,0,0,1,.317.121c.011.008.016.039.027.047-.007.106-.04.211-.045.317s0,.212-.007.318.027.212.026.318-.027.211-.027.317.023.211.025.317-.022.193-.019.3c-.077-.076-.125-.158-.206-.23s-.206-.094-.29-.163-.147-.163-.234-.228-.177-.125-.267-.187-.172-.133-.264-.192-.2-.1-.288-.153-.2-.091-.292-.144-.156-.167-.252-.218-.2-.089-.3-.138-.189-.109-.287-.156-.2-.094-.295-.14-.2-.095-.295-.139-.223-.048-.325-.093-.2-.1-.3-.143-.2-.1-.3-.14-.2-.112-.3-.154-.23-.026-.334-.067-.191-.127-.3-.166S4.4,14.11,4.3,14.073s-.192-.131-.3-.166-.227-.025-.334-.057-.211-.074-.319-.1-.214-.066-.322-.093-.227-.005-.337-.028-.209-.1-.319-.114-.222-.031-.332-.045-.225.006-.336,0-.222-.017-.333-.022-.222-.058-.334-.058-.222.05-.334.056a.58.58,0,0,0-.274.085.532.532,0,0,0-.213.193A.667.667,0,0,0,.143,14c-.009.11-.03.218-.034.329s.005.22.006.33,0,.22.005.33,0,.221.015.33-.011.224.005.333.08.211.1.319.008.224.034.331.107.2.138.3.05.214.087.318.082.2.124.306.1.2.144.3.066.213.118.31.1.2.158.291.131.178.193.269.114.19.181.277.143.168.215.251.127.183.2.262.184.127.266.2.179.126.266.2.139.18.23.244.2.094.3.152.179.128.277.181.2.084.3.131.189.149.3.192.225.064.335.1.229.044.34.075.226.046.339.071.217.1.331.116.232.018.347.033.227.058.343.069.235-.035.351-.029.23.047.345.05.232,0,.348,0,.233.014.348.011.232-.006.348-.011.207-.048.313-.053.212.022.316.016.205-.071.31-.08.209-.012.313-.026.219.032.321.013.191-.112.292-.138.2-.061.3-.095.229-.071.324-.116c.015.108.029.247.045.355s.005.22.023.327.053.212.072.319.049.212.069.32,0,.222.019.329.063.21.084.317.018.226.042.338.1.209.127.32.014.228.037.34.08.215.1.327.021.227.038.339.037.224.049.337.023.227.029.339.019.228.018.341-.06.224-.069.337.013.229-.007.341a3.314,3.314,0,0,1-.085.329.507.507,0,0,0,.04.344.492.492,0,0,0,.213.262.627.627,0,0,0,.334.089.532.532,0,0,0,.332-.1.539.539,0,0,0,.183-.295c.032-.11.1-.21.126-.322s-.016-.234,0-.347.036-.224.042-.338.048-.227.047-.342-.016-.229-.023-.342-.031-.227-.043-.34-.027-.227-.043-.34,0-.232-.017-.344-.1-.215-.12-.326-.01-.231-.032-.342-.041-.225-.063-.336-.092-.226-.116-.343-.036-.242-.058-.359a.631.631,0,0,0,.108-.093c.111,0,.221-.032.333-.036s.223.029.335.022.223-.007.334-.016.22-.036.331-.049.22-.028.331-.043.225,0,.335-.022.217-.053.326-.074.217-.052.325-.076.215-.056.323-.083.221-.036.328-.065.212-.07.318-.1.208-.081.313-.117.2-.092.307-.131.228-.027.331-.07.186-.132.287-.178.2-.094.3-.143.2-.089.3-.142.2-.1.293-.16.2-.093.3-.153.189-.12.28-.183.183-.128.272-.2.188-.123.273-.194.163-.156.245-.235.12-.194.2-.278.144-.168.215-.257.165-.154.23-.247.141-.176.2-.271.091-.206.146-.3.108-.2.158-.3.131-.187.175-.29.092-.207.13-.312.073-.214.106-.321-.007-.235.02-.344.128-.2.149-.312-.028-.232-.014-.343.039-.221.046-.332,0-.224,0-.335.054-.228.045-.34-.053-.222-.072-.332-.038-.223-.066-.331-.066-.216-.1-.321-.059-.221-.109-.322a3.294,3.294,0,0,0-.187-.284.685.685,0,0,0-.291-.247.471.471,0,0,0-.361.023c-.105.039-.227.032-.333.071s-.221.05-.326.089-.2.1-.309.135-.2.1-.309.136-.213.07-.319.11-.2.094-.309.135-.208.086-.312.127-.213.072-.317.115-.2.111-.3.155-.206.088-.308.134-.2.1-.3.144-.229.043-.329.094-.2.11-.3.163-.206.093-.3.149-.185.13-.28.189-.169.151-.263.214-.2.109-.288.175-.177.138-.266.207-.188.124-.275.2-.153.166-.236.242-.166.135-.243.209-.151.151-.225.227-.145.156-.217.235-.13.17-.2.251-.149.153-.215.237-.107.186-.171.272-.166.143-.227.231-.108.185-.165.275-.133.169-.187.262-.076.2-.126.3-.1.188-.147.284-.105.2-.148.3c-.011-.126,0-.267-.009-.393s-.06-.249-.066-.376c0-.107.013-.214.008-.321s.018-.214.013-.32-.061-.211-.065-.317.041-.214.038-.321-.055-.212-.057-.318.058-.214.058-.32-.033-.213-.032-.319.028-.213.031-.319-.023-.214-.018-.32.058-.2.065-.3c.048-.044.053-.115.111-.156a1.827,1.827,0,0,1,.288-.175c.1-.045.22-.043.327-.088s.206-.079.31-.126.17-.152.269-.207.195-.1.292-.151.186-.111.283-.166.206-.077.3-.132.179-.128.277-.181.2-.095.292-.152.2-.09.294-.149.162-.153.257-.21.216-.063.313-.118a1.553,1.553,0,0,1,.3-.147c.1-.034.22-.039.33-.069s.2-.116.305-.153a1.49,1.49,0,0,0,.294-.15,1.135,1.135,0,0,0,.258-.209c.073-.083.175-.148.243-.241s.095-.216.168-.3a1.423,1.423,0,0,1,.285-.191c.089-.063.136-.18.221-.249s.18-.122.262-.194.191-.111.274-.182.148-.16.233-.23a2.248,2.248,0,0,1,.287-.163c.094-.056.166-.153.264-.206s.2-.095.293-.156a1.846,1.846,0,0,0,.283-.181c.09-.087.171-.182.264-.265s.184-.172.274-.256.177-.18.259-.271a2.3,2.3,0,0,0,.209-.309,2.534,2.534,0,0,0,.169-.33c.052-.114.139-.213.181-.331s.1-.233.136-.351.021-.259.06-.375.1-.226.14-.345.031-.248.06-.368.091-.234.112-.355.016-.247.026-.37.054-.246.06-.371.016-.25.016-.375-.023-.251-.032-.374S20.835,4.871,20.814,4.749Z" fill="#600"/>
    </g>
    <g id="グループ_21" data-name="グループ 21" transform="translate(11.792 15.656)">
      <path id="パス_28" data-name="パス 28" d="M4.98.125c-.092.106-.161.236-.254.347s-.151.243-.243.355-.2.208-.286.319-.164.234-.256.344-.172.229-.265.338-.189.216-.285.322-.233.174-.332.277-.208.2-.31.295-.195.209-.3.3-.178.236-.291.323-.248.15-.366.229-.227.183-.351.252-.281.081-.412.139a4.262,4.262,0,0,1-.387.191,4.15,4.15,0,0,1-.426.067c-.146.031-.167.154-.188.264s-.056.253.028.343A.357.357,0,0,0,.4,4.89c.14-.029.272-.071.406-.113s.3-.02.425-.074.251-.137.377-.2.26-.119.381-.194.244-.149.359-.232.2-.2.314-.29.171-.233.276-.328.212-.183.314-.282.215-.183.313-.286.22-.181.315-.286.217-.187.31-.293.112-.277.2-.385.181-.218.271-.326.2-.2.29-.311.154-.242.244-.349.2-.207.288-.313A.335.335,0,0,0,5.6.311a.476.476,0,0,0-.235-.3.355.355,0,0,0-.345.145C4.994.168,4.98.125,4.98.125Z" transform="translate(0)" fill="#f8b62b"/>
    </g>
    <g id="グループ_22" data-name="グループ 22" transform="translate(2.993 15.283)">
      <path id="パス_29" data-name="パス 29" d="M.112.516C.224.608.3.75.412.84s.264.134.381.221.243.16.361.245.234.172.354.255.241.162.362.243.243.16.365.239.224.19.347.268.239.167.363.244.224.174.352.256.261.124.386.2.269.113.4.186.241.162.37.228.271.106.4.161a3.971,3.971,0,0,0,.412.129,2.786,2.786,0,0,0,.418.094,2.187,2.187,0,0,0,.43.079A.405.405,0,0,0,6.434,3.7a.454.454,0,0,0-.01-.374c-.049-.1-.16-.108-.31-.1a1.613,1.613,0,0,1-.465-.074A2.558,2.558,0,0,1,5.2,3.033c-.14-.061-.248-.2-.383-.268s-.293-.11-.425-.179-.252-.2-.389-.273-.314-.087-.449-.169S3.331,1.9,3.2,1.818c-.111-.07-.254-.091-.365-.162S2.607,1.52,2.5,1.448s-.172-.217-.281-.291-.232-.125-.341-.2-.2-.17-.309-.246S1.359.551,1.253.472,1.017.35.913.269.656.167.555.084A.258.258,0,0,0,.272.018a.332.332,0,0,0-.246.2A.269.269,0,0,0,.094.54C.1.544.112.516.112.516Z" transform="translate(0 0)" fill="#f8b62b"/>
    </g>
    <g id="グループ_23" data-name="グループ 23" transform="translate(7.032 8.261)">
      <path id="パス_30" data-name="パス 30" d="M.084.772a2.569,2.569,0,0,0,.326.437,2.514,2.514,0,0,0,.416.348,2.809,2.809,0,0,0,.447.313,3.344,3.344,0,0,0,.5.223,4.031,4.031,0,0,0,.546.085,4.639,4.639,0,0,0,.549.018,5.2,5.2,0,0,0,.544-.05c.175-.015.351-.03.53-.058s.368.015.541-.029a3.858,3.858,0,0,0,.489-.227,2.669,2.669,0,0,0,.484-.222,1.88,1.88,0,0,0,.364-.383A1.591,1.591,0,0,0,6.118.795,1.874,1.874,0,0,0,6.246.282c.025-.23-.122-.29-.3-.282a.288.288,0,0,0-.311.291,1.039,1.039,0,0,1-.324.532,1.436,1.436,0,0,1-.458.411,3.023,3.023,0,0,1-.611.118,5.278,5.278,0,0,1-.6.158c-.225.022-.44.013-.619.016a3.988,3.988,0,0,1-.543-.037,3.124,3.124,0,0,1-.531-.11,2.537,2.537,0,0,1-.528-.158A2.1,2.1,0,0,1,.986.878,2.019,2.019,0,0,1,.641.446.35.35,0,0,0,.176.258.417.417,0,0,0,.049.793S.084.772.084.772Z" transform="translate(0 0)" fill="#f8b62b"/>
    </g>
    <g id="グループ_24" data-name="グループ 24" transform="translate(8.26 6.346)">
      <path id="パス_31" data-name="パス 31" d="M.6.566C.557.557.561.563.61.584A.132.132,0,0,1,.7.677C.7.685.7.694.7.7.7.684.688.667.69.649S.717.566.708.556C.739.593.606.686.587.7.623.7.624.69.6.695S.577.707.612.705C.681.712.585.685.627.7S.6.67.641.708A.108.108,0,0,1,.593.635C.59.619.6.538.586.574A.229.229,0,0,1,.608.519.173.173,0,0,1,.718.478.368.368,0,0,0,.605.5C.581.509.554.512.531.521.469.543.536.554.558.551c.007,0,.016-.007.023,0A.284.284,0,0,1,.532.507.365.365,0,0,0,.045.64a.353.353,0,0,0,.134.47.614.614,0,0,0,.537.083A.467.467,0,0,0,.8,1.173l-.06.008a.607.607,0,0,0,.108,0,.574.574,0,0,0,.134-.059A.566.566,0,0,0,1.224.85.6.6,0,0,0,1.257.493a.557.557,0,0,0-.175-.31A.729.729,0,0,0,.752.014.755.755,0,0,0,.38.034.52.52,0,0,0,.1.266.7.7,0,0,0,0,.641a.751.751,0,0,0,.091.383.44.44,0,0,0,.325.207A.344.344,0,0,0,.833.991C.87.828.794.587.6.56Z" transform="translate(0 0)" fill="#f8b62b"/>
    </g>
    <g id="グループ_25" data-name="グループ 25" transform="translate(10.55 6.279)">
      <path id="パス_32" data-name="パス 32" d="M.6.566C.557.557.561.563.61.584A.132.132,0,0,1,.7.677C.7.685.7.694.7.7.7.684.688.667.69.649S.717.566.708.556C.739.593.606.686.587.7.623.7.624.69.6.695S.577.707.612.705C.681.712.585.685.627.7S.6.67.641.708A.108.108,0,0,1,.593.635C.59.619.6.538.586.574A.209.209,0,0,1,.608.519.173.173,0,0,1,.718.478.368.368,0,0,0,.605.5C.581.509.554.512.531.521.469.543.536.554.558.552c.007,0,.016-.007.023,0A.292.292,0,0,1,.532.507.364.364,0,0,0,.045.64a.353.353,0,0,0,.134.47.615.615,0,0,0,.537.083A.467.467,0,0,0,.8,1.173l-.06.008a.6.6,0,0,0,.108,0,.573.573,0,0,0,.133-.059A.566.566,0,0,0,1.224.85.6.6,0,0,0,1.257.493a.558.558,0,0,0-.175-.31A.729.729,0,0,0,.752.014.756.756,0,0,0,.38.034.521.521,0,0,0,.1.266.7.7,0,0,0,0,.641a.75.75,0,0,0,.091.383.44.44,0,0,0,.325.207A.344.344,0,0,0,.833.991C.87.828.794.587.6.56Z" transform="translate(0 0)" fill="#f8b62b"/>
    </g>
  </g>
</svg>
