<svg id="グループ_19" data-name="グループ 19" xmlns="http://www.w3.org/2000/svg" width="288.786" height="371.503" viewBox="0 0 288.786 371.503">
  <g id="グループ_13" data-name="グループ 13" transform="translate(0 0)">
    <path id="パス_21" data-name="パス 21" d="M-1738.682,88.936c.3-1.7,1.431-3.2,2.023-4.822.588-1.607,1.238-3.186,1.988-4.748s1.76-2.962,2.54-4.493,1.4-3.179,2.1-4.732,1.424-3.048,2.233-4.514,1.384-3.1,2.3-4.512,2.172-2.584,3.173-3.948,2.078-2.622,3.139-3.948a32.641,32.641,0,0,1,3.219-3.8c1.228-1.129,2.7-1.936,4.04-2.945,1.322-1,2.243-2.564,3.622-3.531,1.35-.947,3.192-1.24,4.552-2.243,1.233-.91,2-2.389,3.115-3.417,1.13-1.044,2.145-2.193,3.247-3.216a38.641,38.641,0,0,1,3.582-2.881,17.746,17.746,0,0,1,4.2-1.8,38.511,38.511,0,0,1,4.363-1.241c1.482-.382,2.885-1.031,4.385-1.285s3.047-.2,4.557-.382,3.039-.273,4.549-.44,2.993-.9,4.528-1.179,2.991-.926,4.512-1.177c1.542-.254,3.136-.284,4.663-.389a25.33,25.33,0,0,1,4.7.014c1.549.188,2.831,1.392,4.282,1.989,1.421.586,3.179.541,4.551,1.307s2.646,1.673,4,2.4a28.509,28.509,0,0,0,4.178,1.964c1.44.495,2.764,1.256,4.162,1.741,1.436.5,2.892.88,4.277,1.415,1.41.544,2.759,1.2,4.109,1.835a42.921,42.921,0,0,1,3.977,2.1c1.317.8,2.46,1.927,3.807,2.645,1.37.729,3.152.674,4.475,1.4a45.707,45.707,0,0,1,3.685,2.821c1.288.885,2.816,1.5,3.863,2.595s1.758,2.417,2.632,3.491a40.221,40.221,0,0,1,2.521,3.536A34.97,34.97,0,0,1-1597,58.472a40.387,40.387,0,0,1,1.978,4.085,14.8,14.8,0,0,1,1.956-4.03,25.517,25.517,0,0,1,3.191-2.842c1.011-.918,2.225-1.681,3.34-2.662,1.021-.9,2.147-1.83,3.178-2.906s1.835-2.343,2.914-3.374,2.225-1.927,3.374-2.9c1.119-.943,2.37-1.707,3.6-2.595,1.177-.849,2.192-1.967,3.5-2.759,1.284-.777,2.5-1.662,3.825-2.357s2.688-1.3,4.059-1.927c1.349-.613,2.85-.885,4.26-1.439,1.373-.541,2.774-1.02,4.213-1.516s2.762-1.328,4.175-1.933,2.662-1.54,4.072-2.124,2.9-1.026,4.354-1.472a26.171,26.171,0,0,1,4.488-1.005,20.894,20.894,0,0,1,4.634-.231,43.235,43.235,0,0,1,4.576.671c1.484.323,2.97.687,4.467,1.012s2.834,1.548,4.346,1.716,3.056-.321,4.557-.236,3.009.178,4.506.3a43.035,43.035,0,0,1,4.554.244,26.141,26.141,0,0,1,4.407,1.275c1.416.546,2.815,1.2,4.329,1.657,1.472.448,3.031.721,4.515,1.211a41.585,41.585,0,0,1,4.282,1.93A23.178,23.178,0,0,1-1483.5,36.9a16.389,16.389,0,0,1,3.279,2.62,28.8,28.8,0,0,1,2.286,3.536c.7,1.195,1.54,2.343,2.185,3.581s.687,2.816,1.378,4.009a29.429,29.429,0,0,0,2.144,3.663c1.066,1.333,2.84,2.092,4.122,3.284,1.264,1.172,2.7,2.177,3.972,3.338a40.562,40.562,0,0,1,3.342,3.995,17.769,17.769,0,0,1,2.625,4.387c.7,1.572,1.779,3.023,2.181,4.706.395,1.663-.032,3.492.2,5.212.23,1.7.551,3.393.747,5.1s.495,3.433.787,5.111.663,3.362,1.035,5.05c.369,1.671.554,3.382.878,5.064s.74,3.335.9,5.037.987,3.438.854,5.156-1.3,3.264-1.8,4.917a47.256,47.256,0,0,1-1.787,4.8c-.665,1.569-.716,3.418-1.4,5s-2.113,2.86-2.666,4.475c-.543,1.593-.563,3.359-1.193,4.9s-1.506,2.983-2.24,4.491c-.723,1.487-1.565,2.922-2.4,4.395-.809,1.426-1.533,2.937-2.462,4.367-.914,1.408-1.92,2.767-2.832,4.2-.9,1.413-1.943,2.739-2.913,4.135-.954,1.373-1.763,2.865-2.848,4.183a43.829,43.829,0,0,1-3.356,3.8c-1.1,1.06-2.254,2.05-3.316,3.131s-2.174,2.139-3.237,3.216-2.439,1.85-3.536,2.887-1.76,2.6-2.929,3.558a25.574,25.574,0,0,1-3.783,2.726c-1.341.737-2.837,1.246-4.232,1.883s-2.906,1.055-4.265,1.733a29.453,29.453,0,0,0-4.026,2.224,17.033,17.033,0,0,0-3.394,3.346c-.97,1.228-2.115,2.4-3,3.73-.894,1.346-1.024,3.247-1.993,4.446a14.836,14.836,0,0,1-3.883,2.895,25.115,25.115,0,0,1-4.135,2.111c-1.437.572-2.874,1.2-4.348,1.662-1.491.472-3.21.257-4.642.774a27.087,27.087,0,0,0-4.165,2.163c-1.336.764-2.427,1.965-3.78,2.628-1.383.678-2.9,1.034-4.274,1.657-1.4.637-2.839,1.145-4.2,1.779-1.4.655-2.792,1.273-4.107,1.985a34.67,34.67,0,0,0-3.627,2.85c-1.257.914-2.522,1.768-3.691,2.725-1.212.992-2.568,1.76-3.753,2.67a32.549,32.549,0,0,1-3.616,2.871,33.97,33.97,0,0,1-4.331,1.739c-1.477.576-2.8,1.527-4.234,2-1.532.5-3.114.652-4.483,1.191-1.53.6-3.208.817-4.39,1.671-.151.109-.223.544-.371.654.1,1.463.551,2.924.618,4.387s.061,2.934.1,4.4-.377,2.937-.361,4.4.377,2.927.371,4.393-.318,2.926-.344,4.392.305,2.667.263,4.133c1.066-1.058,1.728-2.184,2.845-3.189s2.847-1.3,4.008-2.251,2.041-2.25,3.242-3.155,2.455-1.731,3.69-2.59,2.386-1.838,3.65-2.656,2.7-1.341,3.99-2.12,2.734-1.257,4.041-2,2.158-2.312,3.483-3.022,2.76-1.225,4.1-1.9,2.615-1.511,3.966-2.164,2.718-1.307,4.077-1.938,2.717-1.312,4.083-1.924c1.405-.631,3.084-.662,4.5-1.289s2.776-1.355,4.2-1.973,2.794-1.326,4.221-1.932,2.707-1.548,4.139-2.136,3.186-.365,4.626-.931,2.638-1.755,4.088-2.3,3.129-.442,4.587-.957,2.653-1.81,4.122-2.293,3.141-.34,4.621-.787,2.922-1.026,4.412-1.434,2.961-.918,4.462-1.281,3.149-.071,4.661-.385,2.893-1.317,4.417-1.577,3.07-.427,4.6-.628,3.117.08,4.656-.058,3.068-.241,4.615-.31,3.075-.808,4.624-.8,3.073.7,4.621.779a8.027,8.027,0,0,1,3.791,1.182,7.359,7.359,0,0,1,2.948,2.677,9.222,9.222,0,0,1,.931,3.919c.125,1.524.419,3.023.475,4.549s-.075,3.046-.09,4.571.007,3.046-.075,4.568-.053,3.054-.205,4.571.147,3.1-.074,4.613-1.1,2.914-1.4,4.412-.108,3.105-.47,4.587-1.48,2.76-1.914,4.221-.694,2.969-1.2,4.408-1.135,2.821-1.713,4.234-1.349,2.718-2,4.1-.912,2.943-1.635,4.287-1.4,2.718-2.192,4.022-1.813,2.458-2.678,3.717-1.572,2.625-2.51,3.834-1.975,2.325-2.98,3.478-1.76,2.539-2.831,3.63-2.543,1.761-3.678,2.789-2.484,1.749-3.68,2.707-1.927,2.49-3.179,3.377-2.794,1.3-4.1,2.11-2.479,1.776-3.831,2.51c-1.333.723-2.812,1.163-4.205,1.816-1.456.682-2.614,2.06-4.1,2.651s-3.114.886-4.632,1.392-3.167.613-4.713,1.037-3.133.631-4.7.978-3,1.333-4.583,1.609-3.213.254-4.8.462-3.147.8-4.743.951-3.256-.487-4.857-.4-3.181.644-4.781.687-3.215,0-4.815,0-3.218.188-4.817.146-3.216-.082-4.814-.159c-1.444-.069-2.871-.663-4.327-.735s-2.929.308-4.38.215-2.842-.979-4.287-1.11-2.9-.17-4.332-.356-3.025.445-4.445.185c-1.438-.265-2.648-1.553-4.046-1.911-1.415-.361-2.744-.838-4.109-1.313s-3.173-.984-4.486-1.6c-.209,1.493-.4,3.42-.626,4.912s-.075,3.04-.318,4.528-.736,2.935-.994,4.422-.682,2.938-.954,4.424.018,3.07-.268,4.554-.87,2.9-1.167,4.382c-.305,1.519-.252,3.134-.583,4.681-.326,1.521-1.431,2.887-1.763,4.43-.329,1.525-.193,3.158-.511,4.7s-1.111,2.979-1.4,4.523-.287,3.142-.527,4.69-.509,3.107-.684,4.661-.311,3.137-.4,4.7-.263,3.152-.252,4.714.827,3.1.96,4.66-.177,3.171.1,4.714a45.72,45.72,0,0,0,1.175,4.557,7.016,7.016,0,0,1-.552,4.761,6.817,6.817,0,0,1-2.948,3.627,8.68,8.68,0,0,1-4.626,1.232,7.36,7.36,0,0,1-4.6-1.334,7.459,7.459,0,0,1-2.527-4.083c-.44-1.525-1.432-2.913-1.739-4.454s.215-3.232.031-4.8-.5-3.1-.576-4.681-.663-3.149-.644-4.729.219-3.163.32-4.74.426-3.136.594-4.708.371-3.136.594-4.7-.024-3.207.239-4.761,1.366-2.97,1.657-4.518.138-3.194.445-4.735.565-3.115.878-4.652c.329-1.625,1.28-3.123,1.6-4.745s.5-3.353.808-4.976a8.761,8.761,0,0,1-1.493-1.294c-1.533-.021-3.062-.443-4.6-.5s-3.094.4-4.634.307-3.083-.091-4.62-.226-3.044-.5-4.578-.673-3.052-.384-4.58-.6-3.112-.051-4.632-.3-3-.739-4.517-1.026-3-.724-4.5-1.052-2.98-.78-4.475-1.15-3.057-.493-4.541-.9-2.934-.965-4.4-1.416-2.876-1.126-4.331-1.622-2.812-1.268-4.252-1.808-3.162-.379-4.584-.963-2.571-1.829-3.973-2.458-2.784-1.3-4.163-1.977-2.823-1.233-4.178-1.959-2.723-1.437-4.051-2.213-2.824-1.291-4.122-2.116-2.609-1.659-3.873-2.535-2.534-1.773-3.76-2.7-2.6-1.707-3.785-2.688-2.254-2.156-3.388-3.247c-1.1-1.061-1.667-2.683-2.723-3.844-1.032-1.137-1.991-2.33-2.97-3.552-.962-1.2-2.285-2.137-3.19-3.412-.893-1.256-1.948-2.433-2.781-3.752s-1.265-2.858-2.028-4.22-1.5-2.707-2.189-4.1-1.811-2.59-2.426-4.019-1.267-2.863-1.806-4.319-1.005-2.967-1.466-4.448.1-3.255-.273-4.756-1.771-2.794-2.06-4.314.387-3.216.193-4.75-.541-3.056-.634-4.6c-.095-1.557-.015-3.1,0-4.639.014-1.561-.751-3.162-.618-4.7s.732-3.07.992-4.592.523-3.083.918-4.578.914-2.985,1.452-4.44.819-3.06,1.5-4.456a45.446,45.446,0,0,1,2.593-3.924,9.482,9.482,0,0,1,4.024-3.425c1.622-.723,3.323-.3,5,.324,1.46.538,3.149.448,4.61.979s3.054.7,4.515,1.228,2.824,1.337,4.284,1.869,2.816,1.35,4.274,1.887,2.954.973,4.409,1.519,2.828,1.305,4.277,1.863,2.873,1.187,4.316,1.758,2.947,1,4.382,1.591,2.722,1.535,4.147,2.15,2.853,1.217,4.268,1.856,2.8,1.321,4.2,1.991,3.171.592,4.557,1.3,2.722,1.519,4.088,2.258,2.852,1.289,4.2,2.066,2.555,1.8,3.876,2.62,2.344,2.1,3.638,2.959,2.722,1.514,3.987,2.423,2.446,1.908,3.676,2.863,2.607,1.712,3.8,2.717,2.116,2.291,3.271,3.343c1.09.992,2.3,1.863,3.359,2.893s2.089,2.087,3.118,3.149,2.01,2.164,3.006,3.258,1.8,2.349,2.754,3.475,2.062,2.124,2.982,3.279,1.484,2.577,2.365,3.762,2.3,1.986,3.136,3.2,1.489,2.563,2.282,3.809,1.845,2.346,2.59,3.621,1.052,2.8,1.745,4.106,1.4,2.6,2.041,3.929,1.458,2.831,2.042,4.188c.149-1.739,0-3.693.124-5.438s.832-3.452.907-5.2c.063-1.476-.177-2.962-.114-4.436s-.244-2.961-.186-4.433.846-2.919.9-4.392-.561-2.967-.52-4.44.756-2.934.784-4.408-.808-2.959-.8-4.432.449-2.946.44-4.419-.39-2.942-.424-4.414.315-2.958.254-4.43-.806-2.747-.9-4.22c-.668-.61-.735-1.588-1.53-2.161a25.287,25.287,0,0,0-3.993-2.428c-1.333-.628-3.039-.6-4.526-1.212-1.382-.572-2.853-1.1-4.3-1.744-1.379-.618-2.354-2.107-3.728-2.871-1.294-.719-2.693-1.321-4.045-2.089-1.288-.734-2.576-1.535-3.921-2.3-1.3-.737-2.856-1.069-4.208-1.824-1.307-.729-2.473-1.769-3.833-2.5-1.315-.711-2.714-1.309-4.035-2.1-1.283-.769-2.765-1.251-4.071-2.06-1.275-.792-2.246-2.111-3.56-2.913-1.283-.782-2.995-.867-4.327-1.63a21.506,21.506,0,0,0-4.11-2.041c-1.452-.467-3.043-.539-4.562-.949-1.5-.4-2.77-1.6-4.225-2.124a20.652,20.652,0,0,1-4.07-2.079,15.7,15.7,0,0,1-3.569-2.9c-1.011-1.151-2.418-2.055-3.367-3.337-.936-1.264-1.31-2.99-2.323-4.172-1.039-1.211-2.68-1.737-3.945-2.64-1.227-.877-1.885-2.5-3.059-3.449s-2.489-1.692-3.634-2.681-2.648-1.532-3.8-2.526c-1.129-.978-2.049-2.216-3.223-3.182a31.082,31.082,0,0,0-3.974-2.259c-1.3-.779-2.3-2.111-3.648-2.858s-2.779-1.312-4.054-2.153a25.562,25.562,0,0,1-3.911-2.506c-1.246-1.2-2.373-2.519-3.659-3.672s-2.545-2.376-3.8-3.545c-1.284-1.2-2.444-2.5-3.589-3.756a31.761,31.761,0,0,1-2.887-4.282,35.127,35.127,0,0,1-2.344-4.567c-.724-1.575-1.92-2.948-2.5-4.578s-1.368-3.219-1.885-4.856c-.531-1.676-.286-3.585-.835-5.191-.554-1.625-1.447-3.133-1.935-4.775s-.435-3.426-.832-5.088-1.265-3.235-1.545-4.917c-.282-1.7-.225-3.425-.356-5.125s-.745-3.406-.825-5.138-.226-3.465-.221-5.19.321-3.468.45-5.18C-1738.785,92.416-1738.976,90.624-1738.682,88.936Z" transform="translate(1739.364 -23.194)" fill="#f8b62a"/>
  </g>
  <g id="グループ_14" data-name="グループ 14" transform="translate(47.957 216.705)">
    <path id="パス_22" data-name="パス 22" d="M-1629.038,159.891c1.277,1.472,2.235,3.266,3.52,4.806,1.251,1.5,2.1,3.367,3.364,4.91,1.243,1.516,2.7,2.876,3.966,4.416,1.248,1.519,2.273,3.239,3.545,4.766s2.375,3.173,3.667,4.677,2.614,2.983,3.939,4.454,3.229,2.41,4.594,3.836,2.876,2.709,4.293,4.078,2.7,2.9,4.178,4.2c1.5,1.31,2.47,3.261,4.024,4.469s3.433,2.074,5.068,3.173,3.141,2.529,4.862,3.492,3.892,1.116,5.7,1.919,3.465,2.022,5.353,2.638c1.866.61,3.947.511,5.9.925,2.021.427,2.311,2.129,2.6,3.648.307,1.585.771,3.5-.381,4.742-1.055,1.138-2.834,1.219-4.764.811s-3.768-.981-5.62-1.562c-1.878-.591-4.088-.275-5.886-1.028s-3.481-1.893-5.215-2.8-3.6-1.646-5.268-2.685-3.374-2.066-4.965-3.216-2.828-2.776-4.348-4.019-2.364-3.221-3.822-4.538-2.94-2.535-4.34-3.91-2.977-2.534-4.331-3.955-3.051-2.506-4.362-3.961-3.008-2.582-4.289-4.061-1.55-3.834-2.807-5.328-2.5-3.014-3.749-4.512c-1.259-1.516-2.773-2.807-4.014-4.3-1.26-1.519-2.134-3.343-3.382-4.825-1.273-1.514-2.715-2.868-3.982-4.327-1.284-1.482-2.052-2.879-1.585-4.363.512-1.62,1.729-3.65,3.248-4.167,1.463-.5,3.414.435,4.777,2.005C-1629.232,160.479-1629.038,159.891-1629.038,159.891Z" transform="translate(1637.708 -158.157)" fill="#fff"/>
  </g>
  <g id="グループ_15" data-name="グループ 15" transform="translate(157.804 211.544)">
    <path id="パス_23" data-name="パス 23" d="M-1625.554,162.085c-1.557,1.275-2.574,3.24-4.162,4.48s-3.658,1.856-5.273,3.062-3.364,2.216-5,3.391-3.24,2.388-4.9,3.534-3.342,2.243-5.015,3.364-3.361,2.216-5.048,3.314-3.1,2.625-4.8,3.7-3.312,2.311-5.019,3.374c-1.622,1.008-3.107,2.415-4.867,3.539-1.643,1.048-3.608,1.72-5.349,2.8-1.683,1.044-3.72,1.562-5.472,2.574-1.734,1-3.343,2.241-5.127,3.152-1.8.918-3.757,1.461-5.586,2.227a54.906,54.906,0,0,1-5.7,1.789,38.581,38.581,0,0,1-5.782,1.3c-2.02.278-3.976,1.236-5.952,1.1a5.606,5.606,0,0,1-4.462-2.68,6.283,6.283,0,0,1,.141-5.178c.681-1.387,2.219-1.5,4.292-1.35a22.329,22.329,0,0,0,6.435-1.02,35.39,35.39,0,0,0,6.256-1.628c1.937-.848,3.435-2.706,5.3-3.709,1.9-1.024,4.053-1.525,5.878-2.481,1.93-1.01,3.491-2.7,5.384-3.78s4.35-1.211,6.214-2.336,3.054-3.354,4.9-4.515c1.54-.968,3.517-1.254,5.053-2.237s3.123-1.885,4.65-2.882,2.376-3.009,3.892-4.022,3.218-1.731,4.718-2.765,2.792-2.351,4.274-3.409,2.873-2.222,4.334-3.309,3.272-1.7,4.709-2.816,3.549-1.411,4.957-2.564c1.5-1.227,2.434-1.382,3.92-.914,1.635.514,2.875,1.232,3.4,2.725.512,1.46.689,3.179-.936,4.509C-1625.387,162.475-1625.554,162.085-1625.554,162.085Z" transform="translate(1713.563 -154.943)" fill="#fff"/>
  </g>
  <g id="グループ_16" data-name="グループ 16" transform="translate(104.951 114.346)">
    <path id="パス_24" data-name="パス 24" d="M-1593.413,105.09a35.5,35.5,0,0,1-4.517,6.055,34.793,34.793,0,0,1-5.756,4.815c-2.049,1.509-3.886,3.243-6.185,4.33a46.249,46.249,0,0,1-6.988,3.093,55.78,55.78,0,0,1-7.555,1.177,64.232,64.232,0,0,1-7.595.242,71.926,71.926,0,0,1-7.535-.7c-2.417-.209-4.852-.414-7.335-.8-2.444-.381-5.092.206-7.482-.408-2.429-.625-4.513-2.219-6.77-3.147a36.964,36.964,0,0,1-6.7-3.07c-2.078-1.394-3.435-3.412-5.034-5.3a22.019,22.019,0,0,1-4.072-5.975,25.947,25.947,0,0,1-1.771-7.092c-.347-3.181,1.686-4.008,4.183-3.9,2.338.1,3.979,1.069,4.3,4.022.34,3.12,2.7,5.276,4.485,7.368s3.629,4.424,6.339,5.7c2.5,1.174,5.607,1,8.456,1.635,2.824.633,5.549,1.925,8.308,2.192,3.122.3,6.094.175,8.574.225a55.2,55.2,0,0,0,7.52-.506,43.253,43.253,0,0,0,7.355-1.522c2.438-.726,5.124-.967,7.3-2.193a29.064,29.064,0,0,0,5.988-4.777,27.956,27.956,0,0,0,4.78-5.981c1.53-2.714,4.353-3.833,6.436-2.6a5.765,5.765,0,0,1,1.753,7.413C-1592.971,105.458-1593.413,105.09-1593.413,105.09Z" transform="translate(1678.744 -94.408)" fill="#fff"/>
  </g>
  <g id="グループ_17" data-name="グループ 17" transform="translate(156.874 87.838)">
    <path id="パス_25" data-name="パス 25" d="M-1658.89,85.736c.6-.13.552-.048-.138.242a1.824,1.824,0,0,0-1.281,1.293c0,.109.019.231.018.34.018-.244.185-.478.169-.723-.006-.183-.376-1.15-.257-1.288-.429.5,1.419,1.8,1.671,2.028-.493-.108-.506-.175-.14-.114.368.045.287.173-.207.148-.95.095.376-.276-.206-.143-.409.095.4-.347-.189.181a1.489,1.489,0,0,0,.658-1.008c.05-.22-.043-1.35.1-.854a3.2,3.2,0,0,0-.3-.759,2.4,2.4,0,0,0-1.521-.564,5.093,5.093,0,0,1,1.558.34c.335.092.7.136,1.031.254.857.31-.066.454-.377.422-.1.058-.223-.093-.32-.035a3.955,3.955,0,0,0,.682-.58c2.054-1.472,5.6-.313,6.736,1.84,1.315,2.489.334,4.926-1.858,6.5a8.5,8.5,0,0,1-7.434,1.15,6.463,6.463,0,0,1-1.219-.268c.278.04.555.071.833.111a8.41,8.41,0,0,1-1.495-.058,7.938,7.938,0,0,1-1.848-.812,7.835,7.835,0,0,1-3.3-3.72,8.259,8.259,0,0,1-.449-4.929,7.714,7.714,0,0,1,2.421-4.292,10.084,10.084,0,0,1,4.574-2.338,10.454,10.454,0,0,1,5.149.273,7.2,7.2,0,0,1,3.867,3.213,9.652,9.652,0,0,1,1.386,5.193,10.393,10.393,0,0,1-1.265,5.305,6.091,6.091,0,0,1-4.5,2.863c-2.484.342-5.138-.56-5.767-3.327-.517-2.266.538-5.6,3.206-5.965Z" transform="translate(1668.16 -77.899)" fill="#fff"/>
  </g>
  <g id="グループ_18" data-name="グループ 18" transform="translate(125.178 86.914)">
    <path id="パス_26" data-name="パス 26" d="M-1639.15,85.163c.6-.132.552-.05-.138.241a1.825,1.825,0,0,0-1.281,1.293c0,.109.019.231.018.34.018-.244.185-.479.169-.723-.007-.183-.376-1.15-.257-1.288-.429.5,1.419,1.8,1.672,2.028-.493-.108-.506-.175-.14-.114.368.045.287.175-.207.148-.95.095.374-.276-.206-.143-.409.095.4-.345-.189.181a1.5,1.5,0,0,0,.658-1.008c.05-.22-.043-1.349.1-.854a2.929,2.929,0,0,0-.3-.758,2.4,2.4,0,0,0-1.521-.565,5.092,5.092,0,0,1,1.558.34c.335.092.7.136,1.031.254.857.311-.066.454-.377.424-.1.056-.223-.095-.319-.037a4.007,4.007,0,0,0,.682-.578c2.054-1.474,5.6-.315,6.736,1.839,1.315,2.489.334,4.926-1.858,6.5a8.507,8.507,0,0,1-7.436,1.15,6.478,6.478,0,0,1-1.217-.268c.278.04.555.071.833.111a8.259,8.259,0,0,1-1.495-.058,7.937,7.937,0,0,1-1.848-.812,7.833,7.833,0,0,1-3.3-3.72,8.259,8.259,0,0,1-.45-4.929,7.716,7.716,0,0,1,2.422-4.292,10.085,10.085,0,0,1,4.573-2.338,10.46,10.46,0,0,1,5.151.273,7.215,7.215,0,0,1,3.867,3.213,9.649,9.649,0,0,1,1.385,5.193,10.393,10.393,0,0,1-1.265,5.305,6.1,6.1,0,0,1-4.5,2.865c-2.484.34-5.138-.562-5.769-3.329-.515-2.264.539-5.6,3.208-5.965Z" transform="translate(1648.419 -77.324)" fill="#fff"/>
  </g>
</svg>
