<?xml version="1.0" encoding="UTF-8"?><svg id="hana" xmlns="http://www.w3.org/2000/svg" viewBox="0 0 20 20"><path id="_パス_345" d="M19.449,13.467c0-.692-.159-1.429-.617-1.978-.227-.334-.591-.164-.889-.06-.562,.212-1.079,.536-1.622,.797-2.235,1.006-4.177,2.785-4.96,5.154-.162-1.178-.385-2.327-.34-3.509,.145-.353,.584-.376,.882-.567,.57-.534,1.352-.831,1.915-1.377,.428-.254,.913-.384,1.317-.686,.373-.224,.415-.702,.776-.914,.905-1.104,2.431-1.726,2.836-3.227,.265-1.253,.641-2.73-.1-3.898-.472-.722-.861-1.559-1.65-1.989-.523-.295-.941-.812-1.529-.992-.479-.156-.978-.068-1.462-.163-.383-.065-.842-.138-1.166,.128-1.207,.721-2.894,1.177-3.27,2.7-.257-.464-1.276-1.08-1.749-1.409-.711-.302-1.474-.558-2.233-.698-.405-.03-.798,.14-1.145,.31-.701-.013-1.359,.249-1.966,.586-.404,.247-.65,.679-.742,1.128-.137,.42-.604,.598-.791,.994-.452,.878-.232,1.968-.4,2.938,.628,1.455,1.412,2.944,2.797,3.834,.535,.623,1.6,.469,1.912,1.363,.319,.252,.741,.367,1.137,.384,.375,.155,.711,.343,1.111,.441,.972,.495,1.366,.835,2.467,1.102-.047,.567,.1,1.124,.104,1.689-.74-.609-1.642-1.022-2.522-1.405-.749-.283-1.535-.468-2.269-.737-.864-.169-1.755-.444-2.661-.378-.443,.012-1.03-.104-1.305,.34-.243,2.31,1.184,4.854,3.422,5.604,1.04,.475,2.251,.385,3.372,.319,.584-.05,1.122-.251,1.698-.275,.241-.154,.524-.255,.791-.382,.063,.466,.242,.907,.317,1.367h1.063c-.009-.036-.017-.072-.027-.107,.033-.028,.063-.06,.089-.095,3.419-.271,7.622-2.468,7.412-6.334Zm-9.521,3.876c-.538,.551-1.882-.187-2.506-.395-1.14-.594-2.338-1.217-3.375-1.953-.195,.005-.118-.439,.104-.455,.308-.049,.615,.228,.91,.329,.383,.284,.844,.455,1.184,.774,.343,.186,.714,.262,.993,.538,.682,.144,1.245,.663,1.947,.734,.336,.084,.892-.133,.743,.429Zm.121-11.169c.279-.572,1.263-.182,1.047,.432-.344,.714-1.403,.408-1.047-.433h0Zm-2.034,.238c.279-.572,1.263-.182,1.047,.432-.348,.708-1.394,.419-1.05-.432h.003Zm2.624,3.128c-1.249,.385-2.729,.274-3.542-.869-.152,0-.097-.385,.042-.465,.374-.185,.503,.336,.77,.489,1.036,.796,3.727,.56,4.097-.885-.051-.32,.565-.437,.545-.057-.003,.158-.027,.315-.074,.466-.284,.746-1.06,1.268-1.837,1.317v.005Zm6.066,4.795c-.576,.693-.897,1.536-1.535,2.164-.6,.666-1.103,1.395-1.937,1.799-.335,.035-1.187,.59-1.088-.102,.01-.104,.019-.21,.147-.249,.396-.046,.706-.313,1.065-.45,1.19-.963,2.089-2.255,2.865-3.572,0,0,.016,.037,.035,.024,.061-.104,.176-.164,.296-.155,.213,.083,.333,.37,.151,.543Z" style="fill:#600;"/></svg>