<svg xmlns="http://www.w3.org/2000/svg" width="482.226" height="80.371" viewBox="0 0 482.226 80.371">
  <g id="グループ_192" data-name="グループ 192" transform="translate(760.96 -198.879)">
    <path id="パス_37" data-name="パス 37" d="M-423.129,243.4a4.532,4.532,0,0,0-5.607,3.118l-7.682,26.948L-439.952,270l3.133-3.078a4.535,4.535,0,0,0,.057-6.414,4.534,4.534,0,0,0-6.415-.057l-3.248,3.191-3.248-3.191a4.537,4.537,0,0,0-6.415.057,4.534,4.534,0,0,0,.057,6.414L-452.9,270l-3.536,3.473-7.681-26.948a4.533,4.533,0,0,0-5.607-3.118,4.534,4.534,0,0,0-3.118,5.606l9.776,34.292a4.538,4.538,0,0,0,3.2,3.142,4.537,4.537,0,0,0,1.159.151,4.534,4.534,0,0,0,3.179-1.3l9.1-8.937,9.1,8.937a4.534,4.534,0,0,0,3.179,1.3,4.538,4.538,0,0,0,1.159-.151,4.538,4.538,0,0,0,3.2-3.142l9.776-34.292A4.534,4.534,0,0,0-423.129,243.4Zm22.767,4.982a19.126,19.126,0,0,0-19.1,19.1,19.126,19.126,0,0,0,19.1,19.1,19.734,19.734,0,0,0,13.7-5,4.537,4.537,0,0,0,.183-6.413A4.54,4.54,0,0,0-392.9,275a10.776,10.776,0,0,1-7.466,2.518,10.044,10.044,0,0,1-10.031-10.031,10.044,10.044,0,0,1,10.031-10.031,10.039,10.039,0,0,1,8.945,5.495h-8.945a4.535,4.535,0,0,0-4.536,4.536,4.536,4.536,0,0,0,4.536,4.536h14.567a4.536,4.536,0,0,0,4.536-4.536A19.125,19.125,0,0,0-400.362,248.384Zm40.255.42h-7.471V241.25a4.607,4.607,0,0,0-4.607-4.607,4.607,4.607,0,0,0-4.608,4.607v40.805a4.608,4.608,0,0,0,4.608,4.608h12.078c11.071,0,19.745-8.314,19.745-18.929S-349.036,248.8-360.107,248.8Zm0,28.644h-7.471v-19.43h7.471c6.84,0,10.531,5.006,10.531,9.715S-353.268,277.448-360.107,277.448Z" transform="translate(-56.52 -7.413)" fill="#600"/>
    <rect id="長方形_19" data-name="長方形 19" width="159.193" height="21.488" rx="10.744" transform="translate(-738.528 198.879)" fill="#f8b62a"/>
    <path id="パス_38" data-name="パス 38" d="M-699.849,204.28h-8.789c-.675,0-1.074.583-1.074,1.349s.414,1.366,1.074,1.366h7.791c.414,0,.583.122.583.461a.994.994,0,0,1-.014.2c-.444,2.93-2.93,5.445-6.5,6.427a1.255,1.255,0,0,0-1,1.274,2.007,2.007,0,0,0,.092.581,1.28,1.28,0,0,0,1.32.922,2.4,2.4,0,0,0,.551-.076,11.479,11.479,0,0,0,8.575-9.481,4.957,4.957,0,0,0,.047-.659,2.373,2.373,0,0,0-.477-1.595A2.457,2.457,0,0,0-699.849,204.28Zm17.519,4.633h-10.861c-.767,0-1.165.583-1.165,1.426s.4,1.427,1.165,1.427h10.861c.766,0,1.166-.583,1.166-1.427S-681.564,208.912-682.33,208.912Zm14.361-6.029a.921.921,0,0,0-.707-.337,1.009,1.009,0,0,0-.5.137.846.846,0,0,0-.445.706.722.722,0,0,0,.153.445c.276.383.6.9.859,1.334a.777.777,0,0,0,.706.459,1.093,1.093,0,0,0,.537-.168.808.808,0,0,0,.415-.735,1.048,1.048,0,0,0-.108-.461A6.8,6.8,0,0,0-667.97,202.884Zm-2.684,3.42a.846.846,0,0,0,.767.477.958.958,0,0,0,.551-.184.831.831,0,0,0,.415-.737,1.215,1.215,0,0,0-.154-.567,14.745,14.745,0,0,0-1-1.4.912.912,0,0,0-.691-.337.974.974,0,0,0-.521.153.9.9,0,0,0-.445.753.806.806,0,0,0,.138.444C-671.269,205.354-670.885,205.937-670.654,206.3Zm2.836,3.774a47.586,47.586,0,0,0-7.1-2.408v-3.314c0-.735-.6-1.136-1.457-1.136s-1.411.4-1.411,1.136v11.658c0,.735.551,1.134,1.411,1.134s1.443-.4,1.443-1.134v-5.353a40.611,40.611,0,0,1,6.012,2.161,1.408,1.408,0,0,0,.6.138,1.364,1.364,0,0,0,1.258-1.012,1.989,1.989,0,0,0,.108-.645A1.3,1.3,0,0,0-667.818,210.078Zm16.629-7.026a.864.864,0,0,0-.781-.521,1.062,1.062,0,0,0-.291.046.7.7,0,0,0-.569.66.986.986,0,0,0,.078.338c.137.321.353.827.475,1.2a.7.7,0,0,0,.689.491.954.954,0,0,0,.353-.062.728.728,0,0,0,.522-.735,1.641,1.641,0,0,0-.032-.263A5.132,5.132,0,0,0-651.189,203.052Zm-9.647,1.166h-.124a1.229,1.229,0,0,0-1.381,1.228,20.621,20.621,0,0,1-.843,5.492,10.453,10.453,0,0,1-1.733,3.3,1.533,1.533,0,0,0-.353.981,1.437,1.437,0,0,0,.428,1.028,1.563,1.563,0,0,0,1.044.4,1.636,1.636,0,0,0,1.3-.661,14.039,14.039,0,0,0,1.977-4.08,24.792,24.792,0,0,0,.936-6.335A1.186,1.186,0,0,0-660.836,204.218Zm7.561,6.733a20.165,20.165,0,0,1-.828-5.307.926.926,0,0,0,.445.122,1.117,1.117,0,0,0,.382-.076.733.733,0,0,0,.537-.7.932.932,0,0,0-.06-.338,7.969,7.969,0,0,0-.6-1.349.729.729,0,0,0-.659-.4,1.277,1.277,0,0,0-.4.076.742.742,0,0,0-.569.689.889.889,0,0,0,.078.338,2.7,2.7,0,0,1,.168.353,1.7,1.7,0,0,0-.7-.138h-.125a1.194,1.194,0,0,0-1.256,1.35,24.726,24.726,0,0,0,.936,6.473,12.216,12.216,0,0,0,2.01,4,1.5,1.5,0,0,0,1.2.583,1.545,1.545,0,0,0,1.012-.369,1.449,1.449,0,0,0,.537-1.12,1.53,1.53,0,0,0-.353-.966A10.476,10.476,0,0,1-653.275,210.951Zm8.422-2.024a1.3,1.3,0,0,0,.936.429,1.493,1.493,0,0,0,1.106-.521,1.552,1.552,0,0,0,.413-1.028,1.44,1.44,0,0,0-.383-.968,14.9,14.9,0,0,0-2.9-2.438,1.366,1.366,0,0,0-.706-.2,1.476,1.476,0,0,0-1.12.523,1.537,1.537,0,0,0-.385.981,1.108,1.108,0,0,0,.445.9A19.815,19.815,0,0,1-644.853,208.928Zm8.713-3.115a2.077,2.077,0,0,0-.6-.106c-.491,0-.921.291-1.166,1.1a10.589,10.589,0,0,1-3.1,4.832,11.015,11.015,0,0,1-5.828,2.07,1.321,1.321,0,0,0-1.242,1.427v.138a1.249,1.249,0,0,0,1.41,1.243,12.842,12.842,0,0,0,7.225-2.409,12.314,12.314,0,0,0,4.173-6.563,1.9,1.9,0,0,0,.06-.491A1.227,1.227,0,0,0-636.14,205.813Zm13.7-.719-3.65.044c.047-.136.092-.26.122-.383a1.226,1.226,0,0,0,.047-.337c0-.491-.353-.9-1.058-1.074a2.105,2.105,0,0,0-.521-.062,1.167,1.167,0,0,0-1.15.906A11.384,11.384,0,0,1-630.2,206.9a8.539,8.539,0,0,1-1.947,1.8,1.309,1.309,0,0,0-.583,1.12,1.318,1.318,0,0,0,.244.781,1.368,1.368,0,0,0,1.136.613,1.574,1.574,0,0,0,.92-.306,10.106,10.106,0,0,0,3.161-3.328l3.574-.03c.366,0,.491.122.491.367a1.152,1.152,0,0,1-.032.215c-.643,3.115-2.9,5.431-6.734,6.335a1.228,1.228,0,0,0-1.044,1.244,1.753,1.753,0,0,0,.092.537,1.176,1.176,0,0,0,1.2.874,2.14,2.14,0,0,0,.413-.047,10.992,10.992,0,0,0,9.1-9.08,4.864,4.864,0,0,0,.078-.8C-620.138,205.937-620.843,205.077-622.44,205.093Zm17.781.551c-.767,0-1.242.338-1.242.966v7.348c0,.475-.108.643-.583.643h-2.546V204.019c0-.629-.507-.968-1.288-.968s-1.275.338-1.275.968V214.6h-2.254c-.475,0-.583-.168-.583-.643v-7.348c0-.628-.491-.966-1.259-.966s-1.242.338-1.242.966v8.237A1.9,1.9,0,0,0-614.769,217h9.2a1.9,1.9,0,0,0,2.164-2.148v-8.237C-603.4,205.983-603.893,205.645-604.66,205.645Zm14.863-1.763h-8.572a2.02,2.02,0,0,0-2.24,2.132v8.36a2.021,2.021,0,0,0,2.24,2.131h8.589a2.021,2.021,0,0,0,2.24-2.131v-8.36A2.025,2.025,0,0,0-589.8,203.881Zm-.321,9.51a.643.643,0,0,1-.737.706H-597.3a.643.643,0,0,1-.737-.706v-6.4a.642.642,0,0,1,.737-.706h6.441a.642.642,0,0,1,.737.706Z" transform="translate(-10.059 -0.717)" fill="#fff"/>
    <path id="パス_39" data-name="パス 39" d="M-684.2,239.267a4.539,4.539,0,0,0-3.158,5.586c2.411,8.674,2.414,27.82-8.5,32.773a4.537,4.537,0,0,0-2.255,6.005,4.537,4.537,0,0,0,4.134,2.663,4.517,4.517,0,0,0,1.872-.407c7.609-3.452,12.583-10.841,14.385-21.365a54.754,54.754,0,0,0-.893-22.1A4.539,4.539,0,0,0-684.2,239.267Zm-35.364,21.175a32.738,32.738,0,0,0,1.523-5.036,4.537,4.537,0,0,0-3.481-5.39,4.537,4.537,0,0,0-5.388,3.48q-.134.618-.305,1.235a23.986,23.986,0,0,0-8.479-1.779c-.768-.027-1.525-.012-2.279.022.039-.418.088-.835.133-1.253,3.8-.538,7.691-1.2,11.524-1.99a4.538,4.538,0,0,0,3.534-5.355,4.542,4.542,0,0,0-5.355-3.534c-2.847.584-5.6,1.075-8.237,1.488.029-.133.052-.27.081-.4a4.535,4.535,0,0,0-3.45-5.408,4.538,4.538,0,0,0-5.408,3.452c-.232,1.05-.463,2.274-.688,3.58-4.224.421-7.8.6-10.412.6a4.536,4.536,0,0,0-4.536,4.536,4.536,4.536,0,0,0,4.536,4.537c2.751,0,5.884-.163,9.218-.451-.065.728-.118,1.472-.171,2.219a22.945,22.945,0,0,0-11.009,9.312c-3.47,5.81-3.667,12.5-.53,17.892.992,1.7,3.564,4.411,9.642,3.457a26.893,26.893,0,0,0,6-1.786c.143.21.265.451.416.649a4.529,4.529,0,0,0,3.6,1.774,4.523,4.523,0,0,0,2.758-.938,4.522,4.522,0,0,0,1.137-5.874,46.924,46.924,0,0,0,10.344-9.8,8.585,8.585,0,0,1-2.17,8.7,4.537,4.537,0,0,0-.35,6.406,4.52,4.52,0,0,0,3.38,1.51,4.53,4.53,0,0,0,3.026-1.157c5.153-4.618,6.922-12.38,4.4-19.313A19.029,19.029,0,0,0-719.56,260.442Zm-31.758,16.351a8.619,8.619,0,0,1,.9-7.832,13.063,13.063,0,0,1,2.982-3.355,59.043,59.043,0,0,0,1.072,9.776A15.276,15.276,0,0,1-751.318,276.793Zm13.334-6.664a72.76,72.76,0,0,1-.408-8.014c.558-.047,1.107-.107,1.7-.107q.347,0,.7.013a15.034,15.034,0,0,1,4.813.9A36.3,36.3,0,0,1-737.983,270.129Zm37.909-11.147a4.517,4.517,0,0,0-2.323-.759,60.288,60.288,0,0,1,1.325-16.242,4.538,4.538,0,0,0-3.386-5.449,4.534,4.534,0,0,0-5.449,3.387c-2.265,9.7-2.206,22.035.138,28.694a4.535,4.535,0,0,0,3.716,2.995,4.775,4.775,0,0,0,.566.035,4.539,4.539,0,0,0,3.773-2.021l2.9-4.35A4.537,4.537,0,0,0-700.075,258.982Zm51.6-11.852c-.718.018-1.463.077-2.21.143.4-2.081.734-4.009.977-5.666a4.537,4.537,0,0,0-3.83-5.146,4.536,4.536,0,0,0-5.148,3.831c-.361,2.463-.91,5.452-1.6,8.691-3.383.846-6.471,1.816-8.631,2.552a4.533,4.533,0,0,0-2.832,5.755,4.537,4.537,0,0,0,5.755,2.832c1.12-.382,2.218-.729,3.3-1.059-2.053,7.756-4.6,15.55-7.214,20.61a4.54,4.54,0,0,0,1.95,6.113,4.518,4.518,0,0,0,2.079.507,4.54,4.54,0,0,0,4.035-2.456c3.542-6.859,6.8-17.547,9.115-27.17a34.168,34.168,0,0,1,4.471-.468,3.935,3.935,0,0,1,2.766.674,3.581,3.581,0,0,1,.56,2.543,48.377,48.377,0,0,1-3.3,14.8,4.54,4.54,0,0,0-6.144.48,4.537,4.537,0,0,0,.252,6.411l4.31,3.983a4.543,4.543,0,0,0,3.08,1.206,4.629,4.629,0,0,0,.663-.048,4.544,4.544,0,0,0,3.248-2.19,58.14,58.14,0,0,0,6.955-24.172c.246-4.815-1.562-7.735-3.121-9.338C-640.562,248.919-643.466,247-648.472,247.131Zm16.82,4.283a4.538,4.538,0,0,0-2.084,6.067,55.043,55.043,0,0,1,4.267,12.693l-.753.562a4.534,4.534,0,0,0-.925,6.347,4.528,4.528,0,0,0,3.64,1.825,4.51,4.51,0,0,0,2.708-.9l2.842-2.119a4.53,4.53,0,0,0,1.818-3.879c-.439-8.21-5.244-18.1-5.447-18.518A4.533,4.533,0,0,0-631.652,251.414Zm-6.367-2.839a4.536,4.536,0,0,0,3.924,2.252,4.521,4.521,0,0,0,2.28-.616,4.536,4.536,0,0,0,1.636-6.2l-1.446-2.481a4.541,4.541,0,0,0-6.2-1.636,4.536,4.536,0,0,0-1.635,6.2Zm15.718-10.951a4.538,4.538,0,0,0-6.368-.773,4.536,4.536,0,0,0-.773,6.369l1.687,2.153a4.532,4.532,0,0,0,3.574,1.738,4.521,4.521,0,0,0,2.795-.966,4.536,4.536,0,0,0,.772-6.369Zm38.417,9.967a73.358,73.358,0,0,0-18.511,7.684c-1.315-3.782-1.959-10.147-1.995-14.361a4.537,4.537,0,0,0-4.536-4.5h-.035a4.535,4.535,0,0,0-4.5,4.568c.018,2.371.3,13.538,3.768,20.142a16.247,16.247,0,0,0-4.741,11.054c0,3.31,1.375,14.112,19.074,14.112H-584.9a4.537,4.537,0,0,0,4.536-4.537,4.536,4.536,0,0,0-4.536-4.536h-10.462c-10,0-10-3.793-10-5.039,0-7.335,15.983-13.811,23.725-15.8a4.535,4.535,0,0,0,3.268-5.518A4.542,4.542,0,0,0-583.885,247.591Zm11.73,4.831A4.537,4.537,0,0,0-574,258.568a4.539,4.539,0,0,0,6.146,1.843c7.887-4.248,18.6-5.456,21.363-.388a8.612,8.612,0,0,1,.567,7.907c-1.825,4.16-7.076,7.772-13.7,9.425a4.536,4.536,0,0,0-3.3,5.5,4.539,4.539,0,0,0,4.4,3.44,4.526,4.526,0,0,0,1.1-.137c9.575-2.39,16.8-7.7,19.815-14.583a17.5,17.5,0,0,0-.91-15.9C-544.161,245.338-560.051,245.9-572.155,252.423Zm8.588-8.37a176.609,176.609,0,0,0,17.706,3.284,4.722,4.722,0,0,0,.627.043,4.538,4.538,0,0,0,4.489-3.914,4.537,4.537,0,0,0-3.872-5.116c-9.886-1.37-16.644-3.071-16.711-3.089a4.527,4.527,0,0,0-5.514,3.278A4.538,4.538,0,0,0-563.567,244.053Zm261.194,23.136a4.536,4.536,0,0,0,4.536,4.536h14.567a4.536,4.536,0,0,0,4.536-4.536,19.125,19.125,0,0,0-19.1-19.1,19.125,19.125,0,0,0-19.1,19.1,19.125,19.125,0,0,0,19.1,19.1,19.74,19.74,0,0,0,13.7-4.994,4.537,4.537,0,0,0,.186-6.413,4.535,4.535,0,0,0-6.413-.186,10.784,10.784,0,0,1-7.469,2.52,10.044,10.044,0,0,1-10.031-10.031,10.044,10.044,0,0,1,10.031-10.031,10.038,10.038,0,0,1,8.944,5.495h-8.944A4.535,4.535,0,0,0-302.373,267.188Zm-69.425-4.065c-3.668.172-5.972.179-7.283-1.157a1.512,1.512,0,0,1-.209-1.671c.523-1.246,2.442-2.576,6.261-2.576,3.7,0,6.18.9,8.293,3.012a4.6,4.6,0,0,0,6.514,0,4.606,4.606,0,0,0,0-6.514c-3.9-3.9-8.6-5.713-14.807-5.713-7.082,0-12.6,3.076-14.758,8.229a10.709,10.709,0,0,0,2.136,11.692c4.293,4.368,9.837,4.105,14.284,3.9,4.4-.213,5.907-.057,6.779,1.279a1.154,1.154,0,0,1-.028,1.212c-.61,1.128-2.642,2.332-6.51,2.332-7.459,0-11.639-3.108-11.774-3.209a4.606,4.606,0,0,0-6.473.735,4.606,4.606,0,0,0,.735,6.473c.669.534,6.856,5.215,17.511,5.215,6.822,0,12.148-2.61,14.611-7.159a10.387,10.387,0,0,0-.356-10.633C-360.763,262.6-367.15,262.9-371.8,263.123Zm24.951-9.8a4.607,4.607,0,0,0-4.607,4.608v23.829a4.607,4.607,0,0,0,4.607,4.608,4.608,4.608,0,0,0,4.608-4.608V257.926A4.608,4.608,0,0,0-346.847,253.319Zm-3.264-10.662a4.661,4.661,0,0,0-1.341,3.266,4.833,4.833,0,0,0,.091.889,5.149,5.149,0,0,0,.253.87,7,7,0,0,0,.436.8,6.817,6.817,0,0,0,.562.69,4.716,4.716,0,0,0,3.268,1.361,4.634,4.634,0,0,0,3.246-1.361,5.1,5.1,0,0,0,.581-.69,4.866,4.866,0,0,0,.418-.8,5.487,5.487,0,0,0,.272-.87,4.9,4.9,0,0,0,.09-.889,4.6,4.6,0,0,0-1.361-3.266A4.785,4.785,0,0,0-350.111,242.657Zm29.015,34.492c-5.6,0-6.582-1.8-6.582-5.595V257.719h6.582a4.607,4.607,0,0,0,4.607-4.608A4.607,4.607,0,0,0-321.1,248.5h-6.582v-2.587a4.607,4.607,0,0,0-4.607-4.607,4.607,4.607,0,0,0-4.607,4.607v25.637c0,9.411,5.757,14.809,15.8,14.809a4.607,4.607,0,0,0,4.607-4.608A4.607,4.607,0,0,0-321.1,277.149Z" transform="translate(0 -7.113)" fill="#f8b62a"/>
    <circle id="楕円形_7" data-name="楕円形 7" cx="24.915" cy="24.915" r="24.915" transform="translate(-527.86 198.879)" fill="#f8b62a"/>
    <path id="パス_40" data-name="パス 40" d="M-451.032,222.345a1.824,1.824,0,0,0,1.27-.911c.243-.408.089-.733.26-1.1.076-.163.041-1.247-1.709-.908-.943.182-1.343,1.437-1.308,1.961A1.316,1.316,0,0,0-451.032,222.345Zm8.29-.49a1.558,1.558,0,0,0,.651-1.5,1.283,1.283,0,0,0-1.277-.993,1.457,1.457,0,0,0-1.026.317c-.248.186-.125.484-.417.768a1.142,1.142,0,0,0,.208,1.41A1.4,1.4,0,0,0-442.742,221.855Zm13.417,1.224a4.627,4.627,0,0,0-3.512-1.84h-.043c-1.817,0-4.369,1.422-4.457,3.777-.052,1.4,1.181,3.1,2.932,4.039a5.275,5.275,0,0,0,2.909.669c-.921,2.925-4.606,7.676-12.214,7.676l-.182,0c-3.245-.032-5.714-1.007-7.34-2.9a9.6,9.6,0,0,1-2.014-7.142,1.139,1.139,0,0,0-.97-1.286,1.146,1.146,0,0,0-1.286.969,11.805,11.805,0,0,0,2.544,8.945c2.073,2.408,5.116,3.649,9.044,3.688h.2c8.857,0,13.868-5.941,14.641-10.246a.875.875,0,0,0,.084-.187C-428.354,226.813-428.494,224.221-429.324,223.079Zm-1.17,3.85a5.209,5.209,0,0,1-1.549-1.759.945.945,0,0,0-1.19-.585.934.934,0,0,0-.588,1.18,6.176,6.176,0,0,0,1.454,2.045,4.018,4.018,0,0,1-1.147-.408,3.476,3.476,0,0,1-1.945-2.317c.045-1.214,1.71-1.971,2.582-1.971h.019a2.75,2.75,0,0,1,2.017,1.067A5.152,5.152,0,0,1-430.495,226.928Z" transform="translate(-59.939 -4.02)" fill="#fff"/>
  </g>
</svg>
