<svg xmlns="http://www.w3.org/2000/svg" width="480" height="80.002" viewBox="0 0 480 80.002">
  <g id="_レイヤー_1-2" transform="translate(0.002)">
    <g id="グループ_2" data-name="グループ 2" transform="translate(-0.002)">
      <path id="パス_1" data-name="パス 1" d="M337.6,44.491a4.512,4.512,0,0,0-5.581,3.1l-7.646,26.824-3.519-3.457,3.119-3.064a4.515,4.515,0,0,0-6.328-6.442l-3.233,3.176-3.233-3.176a4.515,4.515,0,1,0-6.328,6.442l3.118,3.064-3.519,3.457L296.8,47.6a4.515,4.515,0,1,0-8.685,2.477l9.731,34.134a4.515,4.515,0,0,0,7.506,1.982l9.055-8.9,9.055,8.9a4.515,4.515,0,0,0,7.506-1.982l9.731-34.134A4.516,4.516,0,0,0,337.6,44.491Zm22.662,4.96a19.016,19.016,0,1,0,0,38.032A19.645,19.645,0,0,0,373.9,82.511a4.515,4.515,0,1,0-6.2-6.565,10.726,10.726,0,0,1-7.431,2.506,9.985,9.985,0,1,1,8.9-14.5h-8.9a4.515,4.515,0,1,0,0,9.03h14.5a4.515,4.515,0,0,0,4.515-4.515,19.037,19.037,0,0,0-19.016-19.016Zm40.069.418H392.9V42.351a4.586,4.586,0,1,0-9.171,0V82.967a4.585,4.585,0,0,0,4.585,4.586h12.023c11.02,0,19.654-8.276,19.654-18.841s-8.634-18.843-19.654-18.843Zm0,28.512H392.9V59.042h7.436c6.808,0,10.482,4.982,10.482,9.671s-3.674,9.67-10.482,9.67Z" transform="translate(-57.587 -7.553)" fill="#601986"/>
      <rect id="長方形_3" data-name="長方形 3" width="158.458" height="21.389" rx="10.694" transform="translate(22.33)" fill="#fff"/>
      <path id="パス_2" data-name="パス 2" d="M61.064,5.393H52.316c-.672,0-1.069.58-1.069,1.342s.412,1.36,1.069,1.36H60.07c.413,0,.58.122.58.458a.987.987,0,0,1-.014.2c-.442,2.915-2.918,5.42-6.474,6.4a1.249,1.249,0,0,0-.992,1.268,2,2,0,0,0,.092.578,1.273,1.273,0,0,0,1.313.917,2.356,2.356,0,0,0,.55-.076A11.427,11.427,0,0,0,63.659,8.4a5.076,5.076,0,0,0,.046-.656,2.365,2.365,0,0,0-.474-1.587,2.447,2.447,0,0,0-2.168-.764ZM78.5,10H67.693c-.764,0-1.161.58-1.161,1.42s.4,1.42,1.161,1.42H78.5c.762,0,1.161-.58,1.161-1.42S79.265,10,78.5,10ZM92.8,4a.916.916,0,0,0-.7-.335,1,1,0,0,0-.5.136.842.842,0,0,0-.442.7.712.712,0,0,0,.152.442c.275.381.6.9.855,1.328a.772.772,0,0,0,.7.457,1.086,1.086,0,0,0,.534-.167.8.8,0,0,0,.413-.732,1.038,1.038,0,0,0-.107-.458A6.82,6.82,0,0,0,92.8,4Zm-2.672,3.4a.842.842,0,0,0,.764.474.954.954,0,0,0,.549-.183.826.826,0,0,0,.413-.734A1.206,1.206,0,0,0,91.7,6.4a14.735,14.735,0,0,0-.991-1.39.908.908,0,0,0-.688-.335.97.97,0,0,0-.518.152.9.9,0,0,0-.442.75.794.794,0,0,0,.138.442c.319.442.7,1.023.931,1.388Zm2.824,3.757a47.3,47.3,0,0,0-7.07-2.4v-3.3c0-.732-.594-1.13-1.45-1.13s-1.4.4-1.4,1.13v11.6c0,.732.549,1.129,1.4,1.129s1.436-.4,1.436-1.129V11.744A40.522,40.522,0,0,1,91.85,13.9a1.4,1.4,0,0,0,.594.138A1.359,1.359,0,0,0,93.7,13.026a1.983,1.983,0,0,0,.107-.642,1.3,1.3,0,0,0-.855-1.221ZM109.5,4.169a.859.859,0,0,0-.778-.518,1.064,1.064,0,0,0-.29.046.694.694,0,0,0-.566.656.98.98,0,0,0,.078.337c.136.319.351.824.473,1.19a.7.7,0,0,0,.686.489.946.946,0,0,0,.351-.062.723.723,0,0,0,.52-.732,1.618,1.618,0,0,0-.032-.261A5.147,5.147,0,0,0,109.5,4.169ZM99.9,5.33h-.123A1.223,1.223,0,0,0,98.4,6.553a20.535,20.535,0,0,1-.839,5.466A10.363,10.363,0,0,1,95.837,15.3a1.529,1.529,0,0,0-.351.977,1.429,1.429,0,0,0,.427,1.023,1.555,1.555,0,0,0,1.039.4,1.629,1.629,0,0,0,1.3-.658,13.982,13.982,0,0,0,1.969-4.06,24.672,24.672,0,0,0,.931-6.306A1.181,1.181,0,0,0,99.9,5.331Zm7.526,6.7A20.065,20.065,0,0,1,106.6,6.75a.922.922,0,0,0,.442.122,1.113,1.113,0,0,0,.381-.076.73.73,0,0,0,.534-.7.932.932,0,0,0-.06-.337,7.939,7.939,0,0,0-.6-1.342.726.726,0,0,0-.656-.4,1.275,1.275,0,0,0-.4.076.74.74,0,0,0-.566.686.9.9,0,0,0,.078.337,2.627,2.627,0,0,1,.167.351,1.689,1.689,0,0,0-.7-.138H105.1a1.188,1.188,0,0,0-1.25,1.344,24.608,24.608,0,0,0,.931,6.443,12.158,12.158,0,0,0,2,3.985,1.5,1.5,0,0,0,1.19.58,1.537,1.537,0,0,0,1.007-.367,1.44,1.44,0,0,0,.534-1.114,1.523,1.523,0,0,0-.351-.962,10.445,10.445,0,0,1-1.741-3.206Zm8.383-2.014a1.291,1.291,0,0,0,.931.427,1.486,1.486,0,0,0,1.1-.518,1.543,1.543,0,0,0,.411-1.023,1.434,1.434,0,0,0-.381-.963,14.806,14.806,0,0,0-2.886-2.427,1.354,1.354,0,0,0-.7-.2,1.47,1.47,0,0,0-1.114.52,1.531,1.531,0,0,0-.382.977,1.1,1.1,0,0,0,.442.9,19.741,19.741,0,0,1,2.581,2.307Zm8.673-3.1a2.067,2.067,0,0,0-.594-.106c-.489,0-.917.29-1.161,1.1a10.546,10.546,0,0,1-3.085,4.81,10.964,10.964,0,0,1-5.8,2.06A1.314,1.314,0,0,0,112.6,16.2v.138a1.243,1.243,0,0,0,1.4,1.237,12.785,12.785,0,0,0,7.191-2.4,12.26,12.26,0,0,0,4.154-6.533,1.88,1.88,0,0,0,.06-.489,1.221,1.221,0,0,0-.931-1.238ZM138.117,6.2l-3.634.044c.046-.136.092-.259.122-.381a1.217,1.217,0,0,0,.046-.335c0-.489-.351-.9-1.053-1.069a2.1,2.1,0,0,0-.518-.062,1.162,1.162,0,0,0-1.145.9A11.364,11.364,0,0,1,130.391,8a8.5,8.5,0,0,1-1.938,1.786,1.362,1.362,0,0,0-.337,1.892,1.363,1.363,0,0,0,1.13.61,1.57,1.57,0,0,0,.915-.3,10.058,10.058,0,0,0,3.146-3.313l3.558-.03c.365,0,.489.122.489.365a1.134,1.134,0,0,1-.032.214c-.64,3.1-2.886,5.406-6.7,6.306a1.223,1.223,0,0,0-1.039,1.238,1.744,1.744,0,0,0,.092.534,1.17,1.17,0,0,0,1.192.87,2.185,2.185,0,0,0,.411-.046,10.944,10.944,0,0,0,9.054-9.038,4.845,4.845,0,0,0,.078-.8c0-1.25-.7-2.106-2.291-2.09Zm17.7.549c-.764,0-1.237.337-1.237.962v7.314c0,.473-.107.64-.58.64h-2.534V5.133c0-.626-.5-.963-1.282-.963s-1.268.337-1.268.963V15.667H146.67c-.473,0-.58-.167-.58-.64V7.713c0-.624-.489-.962-1.252-.962s-1.237.337-1.237.962v8.2a1.886,1.886,0,0,0,2.152,2.138h9.162a1.887,1.887,0,0,0,2.154-2.138v-8.2c0-.624-.489-.962-1.252-.962ZM170.61,5h-8.534a2.01,2.01,0,0,0-2.23,2.122v8.322a2.011,2.011,0,0,0,2.23,2.122h8.55a2.011,2.011,0,0,0,2.23-2.122V7.118A2.015,2.015,0,0,0,170.61,5Zm-.319,9.466a.639.639,0,0,1-.734.7h-6.411a.639.639,0,0,1-.734-.7V8.094a.639.639,0,0,1,.734-.7h6.411a.639.639,0,0,1,.734.7Z" transform="translate(-10.248 -0.73)" fill="#601986"/>
      <path id="パス_3" data-name="パス 3" d="M76.409,40.37a4.517,4.517,0,0,0-3.143,5.559c2.4,8.634,2.4,27.692-8.459,32.622a4.515,4.515,0,1,0,3.732,8.223c7.574-3.436,12.525-10.791,14.318-21.266a54.482,54.482,0,0,0-.889-21.994A4.517,4.517,0,0,0,76.409,40.37Zm-35.2,21.078a32.5,32.5,0,0,0,1.516-5.013,4.515,4.515,0,1,0-8.828-1.9c-.088.411-.19.82-.3,1.23a23.866,23.866,0,0,0-8.441-1.771c-.764-.026-1.518-.011-2.269.022.038-.416.089-.831.132-1.247,3.778-.536,7.656-1.2,11.471-1.982a4.516,4.516,0,0,0-1.814-8.847c-2.834.581-5.578,1.07-8.2,1.482.028-.132.052-.269.081-.4a4.515,4.515,0,1,0-8.818-1.947c-.231,1.045-.461,2.264-.685,3.563-4.2.419-7.761.6-10.364.6a4.515,4.515,0,1,0,0,9.03c2.738,0,5.857-.162,9.176-.449-.065.725-.118,1.466-.171,2.209A22.834,22.834,0,0,0,2.736,65.293C-.718,71.076-.916,77.734,2.208,83.1c.988,1.7,3.548,4.392,9.6,3.442a26.788,26.788,0,0,0,5.969-1.778c.142.209.264.45.414.646A4.5,4.5,0,0,0,25.652,80.4a46.707,46.707,0,0,0,10.3-9.755,8.545,8.545,0,0,1-2.16,8.657,4.516,4.516,0,0,0,6.027,6.726c5.129-4.6,6.89-12.322,4.378-19.224a18.93,18.93,0,0,0-2.988-5.355ZM9.6,77.722a8.582,8.582,0,0,1,.894-7.8,13.009,13.009,0,0,1,2.969-3.339,58.747,58.747,0,0,0,1.067,9.731,15.208,15.208,0,0,1-4.93,1.4Zm13.273-6.633a72.42,72.42,0,0,1-.407-7.977c.555-.048,1.1-.106,1.692-.106.23,0,.463,0,.7.012a14.942,14.942,0,0,1,4.791.9,36.1,36.1,0,0,1-6.775,7.169ZM60.6,59.994a4.5,4.5,0,0,0-2.312-.755A60.009,60.009,0,0,1,59.61,43.071a4.515,4.515,0,1,0-8.794-2.054c-2.254,9.654-2.2,21.933.138,28.562a4.514,4.514,0,0,0,3.7,2.981,4.587,4.587,0,0,0,.562.035,4.518,4.518,0,0,0,3.755-2.01l2.886-4.33A4.516,4.516,0,0,0,60.6,59.993Zm51.364-11.8c-.714.018-1.456.077-2.2.142.4-2.071.73-3.99.973-5.64A4.516,4.516,0,1,0,101.8,41.39c-.359,2.452-.906,5.426-1.589,8.651-3.367.842-6.442,1.808-8.592,2.54a4.515,4.515,0,0,0,2.91,8.547c1.114-.379,2.207-.725,3.287-1.054-2.043,7.72-4.579,15.478-7.18,20.514a4.516,4.516,0,1,0,8.025,4.145c3.526-6.827,6.765-17.466,9.073-27.045a34,34,0,0,1,4.45-.465,3.913,3.913,0,0,1,2.754.67,3.568,3.568,0,0,1,.558,2.531,48.177,48.177,0,0,1-3.286,14.728,4.516,4.516,0,0,0-5.865,6.859l4.29,3.965a4.521,4.521,0,0,0,3.066,1.2,4.607,4.607,0,0,0,.66-.048,4.521,4.521,0,0,0,3.233-2.18,57.872,57.872,0,0,0,6.923-24.06c.245-4.792-1.554-7.7-3.106-9.3-1.574-1.618-4.464-3.524-9.447-3.4Zm16.742,4.263a4.517,4.517,0,0,0-2.074,6.039,54.779,54.779,0,0,1,4.247,12.634l-.75.559a4.515,4.515,0,1,0,5.4,7.238l2.829-2.11a4.51,4.51,0,0,0,1.81-3.861c-.438-8.172-5.219-18.018-5.422-18.432a4.512,4.512,0,0,0-6.038-2.069Zm-6.338-2.826a4.516,4.516,0,1,0,7.8-4.547l-1.439-2.47a4.516,4.516,0,1,0-7.8,4.547Zm15.645-10.9a4.515,4.515,0,1,0-7.108,5.57l1.679,2.143a4.515,4.515,0,1,0,7.108-5.57Zm38.239,9.922A73.007,73.007,0,0,0,157.83,56.3c-1.309-3.765-1.95-10.1-1.986-14.294a4.516,4.516,0,0,0-4.515-4.478h-.035a4.514,4.514,0,0,0-4.48,4.547c.018,2.36.3,13.475,3.75,20.049a16.173,16.173,0,0,0-4.718,11c0,3.3,1.369,14.047,18.986,14.047h10.414a4.515,4.515,0,1,0,0-9.03H164.832c-9.955,0-9.955-3.776-9.955-5.016,0-7.3,15.91-13.747,23.616-15.724a4.516,4.516,0,0,0-2.236-8.75Zm11.677,4.808a4.516,4.516,0,0,0,4.282,7.951c7.85-4.228,18.517-5.43,21.265-.386a8.572,8.572,0,0,1,.565,7.87c-1.817,4.142-7.043,7.736-13.639,9.382a4.516,4.516,0,1,0,2.186,8.762c9.53-2.379,16.719-7.669,19.723-14.516a17.415,17.415,0,0,0-.906-15.823c-5.61-10.292-21.429-9.729-33.475-3.24Zm8.547-8.33A175.719,175.719,0,0,0,214.1,48.4a4.716,4.716,0,0,0,.624.042,4.515,4.515,0,0,0,.614-8.988c-9.84-1.363-16.567-3.057-16.634-3.074a4.515,4.515,0,0,0-2.227,8.752ZM456.467,68.162a4.515,4.515,0,0,0,4.515,4.515h14.5A4.515,4.515,0,0,0,480,68.162a19.016,19.016,0,1,0-19.016,19.016,19.655,19.655,0,0,0,13.633-4.97,4.516,4.516,0,0,0-6.2-6.569,10.733,10.733,0,0,1-7.434,2.508,9.985,9.985,0,1,1,8.9-14.5h-8.9A4.515,4.515,0,0,0,456.467,68.162Zm-69.1-4.046c-3.651.171-5.944.178-7.25-1.152a1.5,1.5,0,0,1-.208-1.663c.52-1.24,2.43-2.565,6.231-2.565,3.683,0,6.152.9,8.254,3a4.585,4.585,0,0,0,6.484-6.484c-3.878-3.878-8.562-5.686-14.738-5.686-7.048,0-12.539,3.062-14.689,8.191a10.658,10.658,0,0,0,2.126,11.638c4.274,4.348,9.791,4.086,14.218,3.882,4.378-.212,5.881-.057,6.748,1.274a1.151,1.151,0,0,1-.028,1.206c-.606,1.122-2.63,2.321-6.48,2.321-7.424,0-11.585-3.094-11.718-3.194a4.585,4.585,0,1,0-5.711,7.175c.666.531,6.824,5.191,17.43,5.191,6.79,0,12.093-2.6,14.545-7.126a10.341,10.341,0,0,0-.354-10.585c-3.874-5.941-10.232-5.648-14.858-5.422ZM412.2,54.357a4.585,4.585,0,0,0-4.586,4.586v23.72a4.586,4.586,0,1,0,9.171,0V58.942A4.585,4.585,0,0,0,412.2,54.357ZM408.95,43.744a4.638,4.638,0,0,0-1.335,3.25,4.894,4.894,0,0,0,.09.886,5.212,5.212,0,0,0,.252.866,7.024,7.024,0,0,0,.434.8,6.894,6.894,0,0,0,.559.686,4.694,4.694,0,0,0,3.253,1.354,4.607,4.607,0,0,0,3.231-1.354,5.037,5.037,0,0,0,.578-.686,4.836,4.836,0,0,0,.416-.8,5.372,5.372,0,0,0,.269-.866,4.889,4.889,0,0,0,.09-.886,4.575,4.575,0,0,0-1.354-3.25,4.763,4.763,0,0,0-6.484,0Zm28.881,34.333c-5.572,0-6.551-1.8-6.551-5.568V58.737h6.551a4.586,4.586,0,1,0,0-9.171h-6.551V46.99a4.586,4.586,0,1,0-9.171,0V72.51c0,9.368,5.73,14.74,15.722,14.74a4.586,4.586,0,1,0,0-9.171Z" transform="translate(0.002 -7.248)" fill="#fff"/>
      <circle id="楕円形_2" data-name="楕円形 2" cx="24.8" cy="24.8" r="24.8" transform="translate(232.025)" fill="#fff"/>
      <path id="パス_4" data-name="パス 4" d="M309.907,23.453a1.814,1.814,0,0,0,1.263-.907c.243-.4.089-.729.259-1.094.076-.162.041-1.241-1.7-.9-.939.182-1.337,1.43-1.3,1.952a1.31,1.31,0,0,0,1.479.952Zm8.252-.489a1.551,1.551,0,0,0,.648-1.5,1.278,1.278,0,0,0-1.271-.989,1.451,1.451,0,0,0-1.021.316c-.246.185-.125.482-.415.764a1.138,1.138,0,0,0,.208,1.4,1.391,1.391,0,0,0,1.853,0Zm13.355,1.219a4.606,4.606,0,0,0-3.5-1.833h-.043c-1.809,0-4.349,1.415-4.436,3.76-.051,1.392,1.175,3.083,2.918,4.02a5.252,5.252,0,0,0,2.9.666c-.917,2.91-4.585,7.641-12.158,7.641-.06,0-.121,0-.181,0-3.229-.032-5.687-1-7.306-2.883a9.563,9.563,0,0,1-2.006-7.109,1.133,1.133,0,0,0-2.245-.315,11.753,11.753,0,0,0,2.532,8.9c2.063,2.4,5.092,3.632,9,3.671h.2c8.817,0,13.8-5.914,14.573-10.2a.869.869,0,0,0,.084-.186c.632-2.418.493-5-.333-6.135Zm-1.165,3.831a5.182,5.182,0,0,1-1.542-1.751.934.934,0,0,0-1.771.592,6.157,6.157,0,0,0,1.448,2.036,3.974,3.974,0,0,1-1.142-.406,3.461,3.461,0,0,1-1.936-2.306c.045-1.208,1.7-1.962,2.57-1.962H328A2.734,2.734,0,0,1,330,25.281a5.125,5.125,0,0,1,.346,2.734Z" transform="translate(-61.071 -4.096)" fill="#601986"/>
    </g>
  </g>
</svg>
