<svg xmlns="http://www.w3.org/2000/svg" width="111.83" height="91.693" viewBox="0 0 111.83 91.693">
  <path id="パス_318" data-name="パス 318" d="M16.949,11.085A6.757,6.757,0,0,0,21.661,7.7c.907-1.513.334-2.721.967-4.079C22.911,3.02,22.783-1,16.287.254,12.78.931,11.3,5.589,11.432,7.534,11.5,8.54,13.583,11.816,16.949,11.085Zm30.779-1.82C50.267,7,50.363,5.082,50.145,3.688A4.764,4.764,0,0,0,45.4,0a5.413,5.413,0,0,0-3.811,1.179c-.922.689-.465,1.8-1.551,2.85s-.651,4.028.776,5.237A5.188,5.188,0,0,0,47.728,9.265Zm49.813,4.544A17.177,17.177,0,0,0,84.5,6.976c-.054,0-.107,0-.164,0C77.6,6.973,68.123,12.252,67.8,21c-.194,5.189,4.383,11.5,10.885,14.994a19.576,19.576,0,0,0,10.8,2.483c-3.42,10.858-17.1,28.5-45.346,28.5-.224,0-.453,0-.68-.006-12.043-.119-21.21-3.739-27.249-10.754C8.606,47.381,7.932,35.392,8.728,29.7A4.227,4.227,0,1,0,.356,28.523C-.883,37.344.848,51.332,9.8,61.734c7.7,8.94,18.992,13.547,33.578,13.693.245,0,.49,0,.734,0,32.883,0,51.487-22.057,54.358-38.042a3.258,3.258,0,0,0,.313-.7C101.143,27.673,100.621,18.05,97.541,13.809ZM93.2,28.1a19.339,19.339,0,0,1-5.753-6.532A3.507,3.507,0,0,0,83.024,19.4a3.467,3.467,0,0,0-2.184,4.38,22.935,22.935,0,0,0,5.4,7.594,14.911,14.911,0,0,1-4.258-1.516c-4.357-2.342-7.3-6.415-7.221-8.6.167-4.506,6.347-7.317,9.587-7.317h.072A10.209,10.209,0,0,1,91.907,17.9C92.722,19.028,93.6,22.851,93.2,28.1Z" transform="matrix(0.985, -0.174, 0.174, 0.985, 0, 17.409)" fill="#fff" opacity="0.2"/>
</svg>
